<?xml version="1.0" encoding="utf-8"?>
<COLLADA xmlns="http://www.collada.org/2005/11/COLLADASchema" version="1.4.1">
  <asset>
    <contributor>
      <author>Rob</author>
      <authoring_tool>3dsMax 11 - Feeling ColladaMax v3.05B.</authoring_tool>
      <comments>ColladaMax Export Options: ExportNormals=1;ExportEPolyAsTriangles=1;ExportXRefs=1;ExportSelected=1;ExportTangents=0;ExportAnimations=1;SampleAnim=0;ExportAnimClip=0;BakeMatrices=1;ExportRelativePaths=1;AnimStart=0;AnimEnd=3.33333;</comments>
    </contributor>
    <created>2009-11-13T00:24:38Z</created>
    <modified>2009-11-13T00:24:39Z</modified>
    <unit meter="0.0254" name="inch"/>
    <up_axis>Z_UP</up_axis>
  </asset>
  <library_materials>
    <material id="TubeMat" name="TubeMat">
      <instance_effect url="#TubeMat-fx"/>
    </material>
  </library_materials>
  <library_effects>
    <effect id="TubeMat-fx" name="TubeMat">
      <profile_COMMON>
        <technique sid="common">
          <phong>
            <emission>
              <color>0 0 0 1</color>
            </emission>
            <ambient>
              <color>0 0 0 1</color>
            </ambient>
            <diffuse>
              <color>0.5 0.5 0.5 1</color>
            </diffuse>
            <specular>
              <color>0.6 0.6 0.6 1</color>
            </specular>
            <shininess>
              <float>100</float>
            </shininess>
            <transparent opaque="A_ONE">
              <color>0 0 0 1</color>
            </transparent>
            <transparency>
              <float>1</float>
            </transparency>
          </phong>
          <extra>
            <technique profile="FCOLLADA">
              <spec_level>
                <float>2</float>
              </spec_level>
            </technique>
          </extra>
        </technique>
      </profile_COMMON>
    </effect>
  </library_effects>
  <library_geometries>
    <geometry id="Tube01-mesh" name="Tube01">
      <mesh>
        <source id="Tube01-mesh-positions">
          <float_array id="Tube01-mesh-positions-array" count="144">-0.000000 20 0 -0.000000 20 50 -0.000000 10 50 -0.000000 10 0 10 17.3205 0 10 17.3205 50 5 8.66025 50 5 8.66025 0 17.3205 10 0 17.3205 10 50 8.66025 5 50 8.66025 5 0 20 0 0 20 0 50 10 0 50 10 0 0 17.3205 -10 0 17.3205 -10 50 8.66025 -5 50 8.66025 -5 0 10 -17.3205 0 10 -17.3205 50 5 -8.66025 50 5 -8.66025 0 -0.000000 -20 0 -0.000000 -20 50 -0.000000 -10 50 -0.000000 -10 0 -10 -17.3205 0 -10 -17.3205 50 -5 -8.66025 50 -5 -8.66025 0 -17.3205 -10 0 -17.3205 -10 50 -8.66025 -5 50 -8.66025 -5 0 -20 -0.000003 0 -20 -0.000003 50 -10 -0.000001 50 -10 -0.000001 0 -17.3205 10 0 -17.3205 10 50 -8.66026 5 50 -8.66026 5 0 -10 17.3205 0 -10 17.3205 50 -5 8.66025 50 -5 8.66025 0</float_array>
          <technique_common>
            <accessor source="#Tube01-mesh-positions-array" count="48" stride="3">
              <param name="X" type="float"/>
              <param name="Y" type="float"/>
              <param name="Z" type="float"/>
            </accessor>
          </technique_common>
        </source>
        <source id="Tube01-mesh-normals">
          <float_array id="Tube01-mesh-normals-array" count="864">0.258819 0.965926 0 0.258819 0.965926 0 0.258819 0.965926 0 0.258819 0.965926 0 0.258819 0.965926 0 0.258819 0.965926 0 0 0 1 0 0 1 0 0 1 0 0 1 0 0 1 0 0 1 -0.258819 -0.965926 0 -0.258819 -0.965926 0 -0.258819 -0.965926 0 -0.258819 -0.965926 0 -0.258819 -0.965926 0 -0.258819 -0.965926 0 0 0 -1 0 0 -1 0 0 -1 0 0 -1 0 0 -1 0 0 -1 0.707107 0.707107 0 0.707107 0.707107 0 0.707107 0.707107 0 0.707107 0.707107 0 0.707107 0.707107 0 0.707107 0.707107 0 0 0 1 0 0 1 0 0 1 0 0 1 0 0 1 0 0 1 -0.707107 -0.707107 0 -0.707107 -0.707107 0 -0.707107 -0.707107 0 -0.707107 -0.707107 0 -0.707107 -0.707107 0 -0.707107 -0.707107 0 0 0 -1 0 0 -1 0 0 -1 0 0 -1 0 0 -1 0 0 -1 0.965926 0.258819 0 0.965926 0.258819 0 0.965926 0.258819 0 0.965926 0.258819 0 0.965926 0.258819 0 0.965926 0.258819 0 0 0 1 0 0 1 0 0 1 0 0 1 0 0 1 0 0 1 -0.965926 -0.258819 0 -0.965926 -0.258819 0 -0.965926 -0.258819 0 -0.965926 -0.258819 0 -0.965926 -0.258819 0 -0.965926 -0.258819 0 0 0 -1 0 0 -1 0 0 -1 0 0 -1 0 0 -1 0 0 -1 0.965926 -0.258819 0 0.965926 -0.258819 0 0.965926 -0.258819 0 0.965926 -0.258819 0 0.965926 -0.258819 0 0.965926 -0.258819 0 0 0 1 0 0 1 0 0 1 0 0 1 0 0 1 0 0 1 -0.965926 0.258819 0 -0.965926 0.258819 0 -0.965926 0.258819 0 -0.965926 0.258819 0 -0.965926 0.258819 0 -0.965926 0.258819 0 0 0 -1 0 0 -1 0 0 -1 0 0 -1 0 0 -1 0 0 -1 0.707107 -0.707107 0 0.707107 -0.707107 0 0.707107 -0.707107 0 0.707107 -0.707107 0 0.707107 -0.707107 0 0.707107 -0.707107 0 0 0 1 0 0 1 0 0 1 0 0 1 0 0 1 0 0 1 -0.707107 0.707107 0 -0.707107 0.707107 0 -0.707107 0.707107 0 -0.707107 0.707107 0 -0.707107 0.707107 0 -0.707107 0.707107 0 0 0 -1 0 0 -1 0 0 -1 0 0 -1 0 0 -1 0 0 -1 0.258819 -0.965926 0 0.258819 -0.965926 0 0.258819 -0.965926 0 0.258819 -0.965926 0 0.258819 -0.965926 0 0.258819 -0.965926 0 0 0 1 0 0 1 0 0 1 0 0 1 0 0 1 0 0 1 -0.258819 0.965926 0 -0.258819 0.965926 0 -0.258819 0.965926 0 -0.258819 0.965926 0 -0.258819 0.965926 0 -0.258819 0.965926 0 0 0 -1 0 0 -1 0 0 -1 0 0 -1 0 0 -1 0 0 -1 -0.258819 -0.965926 0 -0.258819 -0.965926 0 -0.258819 -0.965926 0 -0.258819 -0.965926 0 -0.258819 -0.965926 0 -0.258819 -0.965926 0 0 0 1 0 0 1 0 0 1 0 0 1 0 0 1 0 0 1 0.258819 0.965926 0 0.258819 0.965926 0 0.258819 0.965926 0 0.258819 0.965926 0 0.258819 0.965926 0 0.258819 0.965926 0 0 0 -1 0 0 -1 0 0 -1 0 0 -1 0 0 -1 0 0 -1 -0.707107 -0.707107 0 -0.707107 -0.707107 0 -0.707107 -0.707107 0 -0.707107 -0.707107 0 -0.707107 -0.707107 0 -0.707107 -0.707107 0 0 0 1 0 0 1 0 0 1 0 0 1 0 0 1 0 0 1 0.707107 0.707107 0 0.707107 0.707107 0 0.707107 0.707107 0 0.707107 0.707107 0 0.707107 0.707107 0 0.707107 0.707107 0 0 0 -1 0 0 -1 0 0 -1 0 0 -1 0 0 -1 0 0 -1 -0.965926 -0.258819 0 -0.965926 -0.258819 0 -0.965926 -0.258819 0 -0.965926 -0.258819 0 -0.965926 -0.258819 0 -0.965926 -0.258819 0 0 0 1 0 0 1 0 0 1 0 0 1 0 0 1 0 0 1 0.965926 0.258819 0 0.965926 0.258819 0 0.965926 0.258819 0 0.965926 0.258819 0 0.965926 0.258819 0 0.965926 0.258819 0 0 0 -1 0 0 -1 0 0 -1 0 0 -1 0 0 -1 0 0 -1 -0.965926 0.258819 0 -0.965926 0.258819 0 -0.965926 0.258819 0 -0.965926 0.258819 0 -0.965926 0.258819 0 -0.965926 0.258819 0 0 0 1 0 0 1 0 0 1 0 0 1 0 0 1 0 0 1 0.965926 -0.258819 0 0.965926 -0.258819 0 0.965926 -0.258819 0 0.965926 -0.258819 0 0.965926 -0.258819 0 0.965926 -0.258819 0 0 0 -1 0 0 -1 0 0 -1 0 0 -1 0 0 -1 0 0 -1 -0.707107 0.707107 0 -0.707107 0.707107 0 -0.707107 0.707107 0 -0.707107 0.707107 0 -0.707107 0.707107 0 -0.707107 0.707107 0 0 0 1 0 0 1 0 0 1 0 0 1 0 0 1 0 0 1 0.707107 -0.707107 0 0.707107 -0.707107 0 0.707107 -0.707107 0 0.707107 -0.707107 0 0.707107 -0.707107 0 0.707107 -0.707107 0 0 0 -1 0 0 -1 0 0 -1 0 0 -1 0 0 -1 0 0 -1 -0.258819 0.965926 0 -0.258819 0.965926 0 -0.258819 0.965926 0 -0.258819 0.965926 0 -0.258819 0.965926 0 -0.258819 0.965926 0 0 0 1 0 0 1 0 0 1 0 0 1 0 0 1 0 0 1 0.258819 -0.965926 0 0.258819 -0.965926 0 0.258819 -0.965926 0 0.258819 -0.965926 0 0.258819 -0.965926 0 0.258819 -0.965926 0 0 0 -1 0 0 -1 0 0 -1 0 0 -1 0 0 -1 0 0 -1</float_array>
          <technique_common>
            <accessor source="#Tube01-mesh-normals-array" count="288" stride="3">
              <param name="X" type="float"/>
              <param name="Y" type="float"/>
              <param name="Z" type="float"/>
            </accessor>
          </technique_common>
        </source>
        <source id="Tube01-mesh-map-channel1">
          <float_array id="Tube01-mesh-map-channel1-array" count="336">0.41583 0.375778 0 0.789519 0.450516 0 0.789519 0.520026 0 0.41583 0.482657 0 0.47186 0.664685 0 0.41583 0.450516 0 0.789519 0.375778 0 0.789519 0.482657 0 0.41583 0.520026 0 0.558449 0.631799 0 0.01 0.01 0 0.383689 0.064711 0 0.97838 0.72153 0 0.604691 0.694174 0 0.505225 0.684268 0 0.01 0.064711 0 0.383689 0.01 0 0.97838 0.694174 0 0.604691 0.72153 0 0.49172 0.592634 0 0.383689 0.13945 0 0.01 0.13945 0 0.604691 0.656806 0 0.97838 0.656806 0 0.596656 0.699082 0 0.41583 0.01 0 0.383689 0.214187 0 0.604691 0.619437 0 0.97838 0.619437 0 0.524329 0.717909 0 0.789519 0.064711 0 0.114937 0.880838 0 0.173482 0.809064 0 0.596103 0.776455 0 0.524052 0.756595 0 0.41583 0.064711 0 0.192309 0.881391 0 0.134796 0.808787 0 0.556937 0.843184 0 0.504469 0.78996 0 0.01 0.30104 0 0.207123 0.78996 0 0.259592 0.843184 0 0.489654 0.881391 0 0.470828 0.809064 0 0.383689 0.355752 0 0.226706 0.756595 0 0.298757 0.776455 0 0.412282 0.880838 0 0.432142 0.808787 0 0.01 0.355752 0 0.226983 0.717909 0 0.29931 0.699082 0 0.345553 0.841672 0 0.398777 0.789204 0 0.41583 0.30104 0 0.789519 0.30104 0 0.789519 0.557395 0 0.41583 0.557395 0 0.307346 0.774389 0 0.379673 0.755563 0 0.97838 0.883121 0 0.604691 0.855765 0 0.97838 0.855765 0 0.604691 0.883121 0 0.604691 0.818396 0 0.97838 0.818396 0 0.604691 0.781027 0 0.97838 0.781027 0 0.604691 0.753672 0 0.97838 0.753672 0 0.383689 0.30104 0 0.383689 0.43049 0 0.01 0.43049 0 0.383689 0.505228 0 0.01 0.505228 0 0.383689 0.559939 0 0.01 0.559939 0 0.97838 0.99 0 0.604691 0.952631 0 0.97838 0.952631 0 0.604691 0.99 0 0.604691 0.915262 0 0.97838 0.915262 0 0.789519 0.13945 0 0.41583 0.13945 0 0.789519 0.214187 0 0.41583 0.214187 0 0.207879 0.684268 0 0.261104 0.631799 0 0.174515 0.664685 0 0.194374 0.592634 0 0.135828 0.664408 0 0.117002 0.592081 0 0.102187 0.683512 0 0.049718 0.630288 0 0.082604 0.716877 0 0.010553 0.697017 0 0.082327 0.755563 0 0.01 0.774389 0 0.101431 0.789204 0 0.048206 0.841672 0 0.307899 0.697017 0 0.37995 0.716877 0 0.347064 0.630288 0 0.399533 0.683512 0 0.414347 0.592081 0 0.433174 0.664408 0 0.01 0.214187 0 0.383689 0.268899 0 0.604691 0.592081 0 0.97838 0.592081 0</float_array>
          <technique_common>
            <accessor source="#Tube01-mesh-map-channel1-array" count="112" stride="3">
              <param name="S" type="float"/>
              <param name="T" type="float"/>
              <param name="P" type="float"/>
            </accessor>
          </technique_common>
        </source>
        <vertices id="Tube01-mesh-vertices">
          <input semantic="POSITION" source="#Tube01-mesh-positions"/>
        </vertices>
        <triangles material="TubeMat" count="96">
          <input semantic="VERTEX" source="#Tube01-mesh-vertices" offset="0"/>
          <input semantic="NORMAL" source="#Tube01-mesh-normals" offset="1"/>
          <input semantic="TEXCOORD" source="#Tube01-mesh-map-channel1" offset="2" set="1"/>
          <p>0 0 0 5 1 1 4 2 5 0 3 0 1 4 6 5 5 1 1 6 31 6 7 32 5 8 36 1 9 31 2 10 37 6 11 32 2 12 2 7 13 3 6 14 7 2 15 2 3 16 8 7 17 3 3 18 4 4 19 9 7 20 14 3 21 4 0 22 19 4 23 9 4 24 10 9 25 11 8 26 15 4 27 10 5 28 16 9 29 11 5 30 36 10 31 41 9 32 42 5 33 36 6 34 32 10 35 41 6 36 12 11 37 13 10 38 17 6 39 12 7 40 18 11 41 13 7 42 14 8 43 24 11 44 29 7 45 14 4 46 9 8 47 24 8 48 15 13 49 20 12 50 21 8 51 15 9 52 11 13 53 20 9 54 42 14 55 46 13 56 47 9 57 42 10 58 41 14 59 46 10 60 17 15 61 22 14 62 23 10 63 17 11 64 13 15 65 22 11 66 29 12 67 33 15 68 34 11 69 29 8 70 24 12 71 33 12 72 21 17 73 26 16 74 108 12 75 21 13 76 20 17 77 26 13 78 47 18 79 51 17 80 52 13 81 47 14 82 46 18 83 51 14 84 23 19 85 27 18 86 28 14 87 23 15 88 22 19 89 27 15 90 34 16 91 38 19 92 39 15 93 34 12 94 33 16 95 38 16 96 25 21 97 30 20 98 35 16 99 108 17 100 26 21 101 109 17 102 52 22 103 88 21 104 89 17 105 52 18 106 51 22 107 88 18 108 28 23 109 110 22 110 111 18 111 28 19 112 27 23 113 110 19 114 39 20 115 43 23 116 44 19 117 39 16 118 38 20 119 43 20 120 35 25 121 84 24 122 85 20 123 35 21 124 30 25 125 84 21 126 89 26 127 90 25 128 91 21 129 89 22 130 88 26 131 90 22 132 78 27 133 79 26 134 80 22 135 78 23 136 81 27 137 79 23 138 44 24 139 48 27 140 49 23 141 44 20 142 43 24 143 48 24 144 85 29 145 86 28 146 87 24 147 85 25 148 84 29 149 86 25 150 91 30 151 92 29 152 93 25 153 91 26 154 90 30 155 92 26 156 80 31 157 82 30 158 83 26 159 80 27 160 79 31 161 82 27 162 49 28 163 53 31 164 54 27 165 49 24 166 48 28 167 53 28 168 40 33 169 45 32 170 50 28 171 40 29 172 71 33 173 45 29 174 93 34 175 94 33 176 95 29 177 93 30 178 92 34 179 94 30 180 61 35 181 62 34 182 63 30 183 61 31 184 64 35 185 62 31 186 54 32 187 59 35 188 60 31 189 54 28 190 53 32 191 59 32 192 50 37 193 72 36 194 73 32 195 50 33 196 45 37 197 72 33 198 95 38 199 96 37 200 97 33 201 95 34 202 94 38 203 96 34 204 63 39 205 65 38 206 66 34 207 63 35 208 62 39 209 65 35 210 60 36 211 102 39 212 103 35 213 60 32 214 59 36 215 102 36 216 73 41 217 74 40 218 75 36 219 73 37 220 72 41 221 74 37 222 97 42 223 98 41 224 99 37 225 97 38 226 96 42 227 98 38 228 66 43 229 67 42 230 68 38 231 66 39 232 65 43 233 67 39 234 103 40 235 104 43 236 105 39 237 103 36 238 102 40 239 104 40 240 75 45 241 76 44 242 77 40 243 75 41 244 74 45 245 76 41 246 99 46 247 100 45 248 101 41 249 99 42 250 98 46 251 100 42 252 68 47 253 69 46 254 70 42 255 68 43 256 67 47 257 69 43 258 105 44 259 106 47 260 107 43 261 105 40 262 104 44 263 106 44 264 55 1 265 6 0 266 0 44 267 55 45 268 56 1 269 6 45 270 101 2 271 37 1 272 31 45 273 101 46 274 100 2 275 37 46 276 57 3 277 8 2 278 2 46 279 57 47 280 58 3 281 8 47 282 107 0 283 19 3 284 4 47 285 107 44 286 106 0 287 19</p>
        </triangles>
      </mesh>
    </geometry>
  </library_geometries>
  <library_visual_scenes>
    <visual_scene id="unnamed_scene" name="unnamed_scene">
      <node id="Tube01-node" name="Tube01" type="NODE">
        <matrix>1 0 0 0 0 1 0 0 0 0 1 -25 0 0 0 1</matrix>
        <instance_geometry url="#Tube01-mesh">
          <bind_material>
            <technique_common>
              <instance_material symbol="TubeMat" target="#TubeMat">
                <bind_vertex_input semantic="CHANNEL1" input_semantic="TEXCOORD" input_set="1"/>
              </instance_material>
            </technique_common>
          </bind_material>
        </instance_geometry>
      </node>
      <extra>
        <technique profile="FCOLLADA">
          <start_time>0</start_time>
          <end_time>3.33333</end_time>
        </technique>
      </extra>
      <extra>
        <technique profile="MAX3D">
          <frame_rate>30</frame_rate>
        </technique>
      </extra>
    </visual_scene>
  </library_visual_scenes>
  <scene>
    <instance_visual_scene url="#unnamed_scene"/>
  </scene>
</COLLADA>
