<?xml version="1.0" encoding="utf-8"?>
<COLLADA xmlns="http://www.collada.org/2005/11/COLLADASchema" version="1.4.0">
  <asset>
    <contributor>
      <author></author>
      <authoring_tool>FBX COLLADA exporter</authoring_tool>
      <comments></comments>
    </contributor>
    <created>2009-03-08T01:31:05Z</created>
    <modified>2009-03-08T01:31:05Z</modified>
    <revision></revision>
    <title></title>
    <subject></subject>
    <keywords></keywords>
    <unit meter="0.025400"/>
    <up_axis>Z_UP</up_axis>
  </asset>
  <library_geometries>
    <geometry id="Plane01-lib" name="Plane01Mesh">
      <mesh>
        <source id="Plane01-lib-Position">
          <float_array id="Plane01-lib-Position-array" count="18">
-125.000000 -125.000000 0.000000
125.000000 -125.000000 0.000000
-125.000000 125.000000 0.000000
125.000000 125.000000 0.000000
125.000000 125.000000 0.000000
-125.000000 -125.000000 0.000000
</float_array>
          <technique_common>
            <accessor source="#Plane01-lib-Position-array" count="6" stride="3">
              <param name="X" type="float"/>
              <param name="Y" type="float"/>
              <param name="Z" type="float"/>
            </accessor>
          </technique_common>
        </source>
        <source id="Plane01-lib-Normal0">
          <float_array id="Plane01-lib-Normal0-array" count="18">
0.000000 0.000000 1.000000
0.000000 0.000000 1.000000
0.000000 0.000000 1.000000
0.000000 0.000000 1.000000
0.000000 0.000000 1.000000
0.000000 0.000000 1.000000
</float_array>
          <technique_common>
            <accessor source="#Plane01-lib-Normal0-array" count="6" stride="3">
              <param name="X" type="float"/>
              <param name="Y" type="float"/>
              <param name="Z" type="float"/>
            </accessor>
          </technique_common>
        </source>
        <source id="Plane01-lib-UV0">
          <float_array id="Plane01-lib-UV0-array" count="16">
0.000000 0.000000
250.000000 0.000000
0.000000 250.000000
250.000000 250.000000
250.000000 250.000000
0.000000 0.000000
0.000000 250.000000
250.000000 250.000000
</float_array>
          <technique_common>
            <accessor source="#Plane01-lib-UV0-array" count="8" stride="2">
              <param name="S" type="float"/>
              <param name="T" type="float"/>
            </accessor>
          </technique_common>
        </source>
        <vertices id="Plane01-lib-Vertex">
          <input semantic="POSITION" source="#Plane01-lib-Position"/>
        </vertices>
        <polygons count="2">
          <input semantic="VERTEX" offset="0" source="#Plane01-lib-Vertex"/>
          <input semantic="NORMAL" offset="1" source="#Plane01-lib-Normal0"/>
          <input semantic="TEXCOORD" offset="2" set="0" source="#Plane01-lib-UV0"/>
          <p>2 2 2 0 0 0 3 3 3</p>
          <p>1 1 1 4 4 4 5 5 5</p>
        </polygons>
      </mesh>
    </geometry>
  </library_geometries>
  <library_visual_scenes>
    <visual_scene id="RootNode" name="RootNode">
      <node id="Plane01" name="Plane01">
        <instance_geometry url="#Plane01-lib"/>
      </node>
    </visual_scene>
  </library_visual_scenes>
  <scene>
    <instance_visual_scene url="#RootNode"/>
  </scene>
</COLLADA>

