<?xml version="1.0" encoding="utf-8"?>
<COLLADA xmlns="http://www.collada.org/2005/11/COLLADASchema" version="1.4.1">
  <asset>
    <contributor>
      <author>Rob</author>
      <authoring_tool>3dsMax 11 - Feeling ColladaMax v3.05B.</authoring_tool>
      <comments>ColladaMax Export Options: ExportNormals=1;ExportEPolyAsTriangles=1;ExportXRefs=1;ExportSelected=1;ExportTangents=0;ExportAnimations=1;SampleAnim=0;ExportAnimClip=0;BakeMatrices=1;ExportRelativePaths=1;AnimStart=0;AnimEnd=3.33333;</comments>
    </contributor>
    <created>2009-03-15T23:56:17Z</created>
    <modified>2009-03-15T23:56:29Z</modified>
    <unit meter="0.0254" name="inch"/>
    <up_axis>Z_UP</up_axis>
  </asset>
  <library_animations>
    <animation id="Box01-node-transform">
      <source id="Box01-node-transform_Box01-node_transform-input">
        <float_array id="Box01-node-transform_Box01-node_transform-input-array" count="101">0 0.033333 0.066666 0.1 0.133333 0.166667 0.2 0.233333 0.266667 0.3 0.333333 0.366667 0.4 0.433333 0.466667 0.5 0.533333 0.566667 0.6 0.633333 0.666667 0.7 0.733333 0.766667 0.8 0.833333 0.866667 0.9 0.933333 0.966667 1 1.03333 1.06667 1.1 1.13333 1.16667 1.2 1.23333 1.26667 1.3 1.33333 1.36667 1.4 1.43333 1.46667 1.5 1.53333 1.56667 1.6 1.63333 1.66667 1.7 1.73333 1.76667 1.8 1.83333 1.86667 1.9 1.93333 1.96667 2 2.03333 2.06667 2.1 2.13333 2.16667 2.2 2.23333 2.26667 2.3 2.33333 2.36667 2.4 2.43333 2.46667 2.5 2.53333 2.56667 2.6 2.63333 2.66667 2.7 2.73333 2.76667 2.8 2.83333 2.86667 2.9 2.93333 2.96667 3 3.03333 3.06667 3.1 3.13333 3.16667 3.2 3.23333 3.26667 3.3 3.33333</float_array>
        <technique_common>
          <accessor source="#Box01-node-transform_Box01-node_transform-input-array" count="101" stride="1">
            <param name="TIME" type="float"/>
          </accessor>
        </technique_common>
        <technique profile="MAYA">
          <pre_infinity>CONSTANT</pre_infinity>
          <post_infinity>CONSTANT</post_infinity>
        </technique>
      </source>
      <source id="Box01-node-transform_Box01-node_transform-output">
        <float_array id="Box01-node-transform_Box01-node_transform-output-array" count="1616">1 0 0 0 0 1 0 0 0 0 1 -50 0 0 0 1 1 0 0 0 0 1 0 0 0 0 1 -50 0 0 0 1 0.999959 -0.009006 0.000048 0 0.009006 0.999945 -0.005379 0 0 0.00538 0.999986 -50 0 0 0 1 0.999381 -0.035162 0.000739 0 0.03517 0.999161 -0.020999 0 0 0.021012 0.999779 -50 0 0 0 1 0.997018 -0.077083 0.003559 0 0.077165 0.995957 -0.045988 0 0 0.046126 0.998936 -50 0 0 0 1 0.991045 -0.133101 0.010671 0 0.133528 0.987875 -0.079204 0 0 0.07992 0.996801 -50 0 0 0 1 0.979271 -0.201052 0.024619 0 0.202554 0.972011 -0.119024 0 0 0.121543 0.992586 -50 0 0 0 1 0.959357 -0.278084 0.047992 0 0.282195 0.945382 -0.163156 0 0 0.170068 0.985432 -50 0 0 0 1 0.929034 -0.360553 0.083056 0 0.369996 0.905323 -0.208549 0 0 0.22448 0.974479 -50 0 0 0 1 0.886318 -0.444055 0.13136 0 0.463077 0.849911 -0.251419 0 0 0.283667 0.958923 -50 0 0 0 1 0.829722 -0.523613 0.193368 0 0.558177 0.778342 -0.287438 0 0 0.346428 0.938077 -50 0 0 0 1 0.758424 -0.594027 0.268189 0 0.651762 0.69124 -0.312079 0 0 0.411484 0.911417 -50 0 0 0 1 0.672405 -0.650344 0.353447 0 0.740184 0.590792 -0.321082 0 0 0.477512 0.878625 -50 0 0 0 1 0.57251 -0.6884 0.445352 0 0.819898 0.480689 -0.310976 0 0 0.54318 0.839617 -50 0 0 0 1 0.460445 -0.70532 0.538993 0 0.887688 0.365851 -0.279577 0 0 0.607188 0.794559 -50 0 0 0 1 0.338688 -0.699907 0.628825 0 0.940899 0.25194 -0.226353 0 0 0.668323 0.743871 -50 0 0 0 1 0.210329 -0.672822 0.709276 0 0.977631 0.144752 -0.152595 0 0 0.725505 0.688217 -50 0 0 0 1 0.078854 -0.626518 0.775407 0 0.996886 0.049558 -0.061335 0 0 0.777829 0.628475 -50 0 0 0 1 -0.052107 -0.564942 0.823484 0 0.998641 -0.029477 0.042967 0 0 0.824604 0.565711 -50 0 0 0 1 -0.179049 -0.493026 0.851391 0 0.98384 -0.089725 0.154944 0 0 0.865376 0.501124 -50 0 0 0 1 -0.298822 -0.416086 0.858824 0 0.954309 -0.130289 0.268923 0 0 0.899943 0.436007 -50 0 0 0 1 -0.408833 -0.339213 0.847225 0 0.912609 -0.151962 0.379542 0 0 0.928354 0.371696 -50 0 0 0 1 -0.507171 -0.266761 0.819522 0 0.861846 -0.156981 0.482265 0 0 0.950892 0.309523 -50 0 0 0 1 -0.592661 -0.20199 0.779713 0 0.805452 -0.148627 0.573722 0 0 0.968044 0.250779 -50 0 0 0 1 -0.664842 -0.146919 0.732394 0 0.746984 -0.130763 0.651855 0 0 0.980467 0.196683 -50 0 0 0 1 -0.723872 -0.102366 0.682298 0 0.689934 -0.107401 0.71586 0 0 0.988932 0.14837 -50 0 0 0 1 -0.770378 -0.068143 0.633935 0 0.637587 -0.082335 0.765966 0 0 0.994272 0.106877 -50 0 0 0 1 -0.805264 -0.043373 0.591328 0 0.592916 -0.058907 0.803107 0 0 0.997321 0.073152 -50 0 0 0 1 -0.829485 -0.026849 0.557883 0 0.558529 -0.039874 0.828526 0 0 0.998844 0.048071 -50 0 0 0 1 -0.843817 -0.017413 0.536349 0 0.536631 -0.027381 0.843372 0 0 0.999473 0.032449 -50 0 0 0 1 -0.848616 -0.014321 0.528816 0 0.52901 -0.022973 0.848305 0 0 0.999633 0.027072 -50 0 0 0 1 -0.84413 -0.017258 0.535861 0 0.536138 -0.027172 0.843693 0 0 0.999482 0.032189 -50 0 0 0 1 -0.830742 -0.026202 0.556041 0 0.556658 -0.039104 0.829821 0 0 0.998892 0.047071 -50 0 0 0 1 -0.808151 -0.041816 0.587489 0 0.588975 -0.057377 0.806112 0 0 0.997476 0.070998 -50 0 0 0 1 -0.77568 -0.065145 0.627755 0 0.631126 -0.080066 0.771537 0 0 0.994659 0.10322 -50 0 0 0 1 -0.73247 -0.097313 0.673808 0 0.680799 -0.104699 0.724949 0 0 0.989731 0.14294 -50 0 0 0 1 -0.677685 -0.139194 0.722058 0 0.735352 -0.128279 0.665434 0 0 0.981921 0.189289 -50 0 0 0 1 -0.610697 -0.191095 0.768461 0 0.791865 -0.147375 0.592647 0 0 0.970445 0.241323 -50 0 0 0 1 -0.531256 -0.252476 0.808717 0 0.847211 -0.158318 0.507117 0 0 0.954563 0.298008 -50 0 0 0 1 -0.439628 -0.321752 0.838572 0 0.89818 -0.157486 0.410452 0 0 0.933635 0.358226 -50 0 0 0 1 -0.336686 -0.396225 0.854194 0 0.941617 -0.141675 0.305427 0 0 0.907157 0.420793 -50 0 0 0 1 -0.223949 -0.472168 0.852587 0 0.974601 -0.108497 0.195912 0 0 0.874806 0.484473 -50 0 0 0 1 -0.103553 -0.545074 0.831968 0 0.994624 -0.056749 0.086618 0 0 0.836465 0.54802 -50 0 0 0 1 0.02183 -0.610064 0.792051 0 0.999762 0.013321 -0.017295 0 0 0.79224 0.610209 -50 0 0 0 1 0.149142 -0.66239 0.734163 0 0.988816 0.099907 -0.110733 0 0 0.742467 0.669882 -50 0 0 0 1 0.275122 -0.697974 0.661166 0 0.961409 0.199736 -0.189203 0 0 0.687705 0.725991 -50 0 0 0 1 0.39653 -0.713887 0.577174 0 0.918022 0.308356 -0.249304 0 0 0.628715 0.777636 -50 0 0 0 1 0.510358 -0.7087 0.487113 0 0.859962 0.420589 -0.289085 0 0 0.566435 0.824106 -50 0 0 0 1 0.614043 -0.682642 0.396171 0 0.789273 0.531086 -0.308215 0 0 0.501944 0.8649 -50 0 0 0 1 0.70562 -0.637551 0.309239 0 0.70859 0.634878 -0.307943 0 0 0.436415 0.899746 -50 0 0 0 1 0.783842 -0.576625 0.230424 0 0.62096 0.727878 -0.290865 0 0 0.371076 0.928602 -50 0 0 0 1 0.848221 -0.504036 0.162689 0 0.529642 0.807214 -0.260547 0 0 0.307169 0.951655 -50 0 0 0 1 0.899015 -0.42447 0.107686 0 0.437917 0.87141 -0.221073 0 0 0.245906 0.969294 -50 0 0 0 1 0.937151 -0.342673 0.065752 0 0.348924 0.920361 -0.176601 0 0 0.188445 0.982084 -50 0 0 0 1 0.964103 -0.263067 0.036076 0 0.265529 0.955163 -0.130989 0 0 0.135866 0.990727 -50 0 0 0 1 0.981735 -0.189495 0.016963 0 0.190252 0.977825 -0.087532 0 0 0.089161 0.996017 -50 0 0 0 1 0.992126 -0.125089 0.006166 0 0.125241 0.990923 -0.048846 0 0 0.049233 0.998787 -50 0 0 0 1 0.997383 -0.072283 0.001222 0 0.072293 0.997241 -0.016861 0 0 0.016906 0.999857 -50 0 0 0 1 0.999458 -0.032917 -0.000232 0 0.032918 0.999433 0.007058 0 0 -0.007062 0.999975 -50 0 0 0 1 0.999965 -0.00842 -0.000184 0 0.008422 0.999723 0.021953 0 0 -0.021954 0.999759 -50 0 0 0 1 1 0 0 0 0 0.999633 0.027072 0 0 -0.027072 0.999633 -50 0 0 0 1 1 0 0 0 0 0.999633 0.027072 0 0 -0.027072 0.999633 -50 0 0 0 1 1 0 0 0 0 0.999633 0.027072 0 0 -0.027072 0.999633 -50 0 0 0 1 1 0 0 0 0 0.999633 0.027072 0 0 -0.027072 0.999633 -50 0 0 0 1 1 0 0 0 0 0.999633 0.027072 0 0 -0.027072 0.999633 -50 0 0 0 1 1 0 0 0 0 0.999633 0.027072 0 0 -0.027072 0.999633 -50 0 0 0 1 1 0 0 0 0 0.999633 0.027072 0 0 -0.027072 0.999633 -50 0 0 0 1 1 0 0 0 0 0.999633 0.027072 0 0 -0.027072 0.999633 -50 0 0 0 1 1 0 0 0 0 0.999633 0.027072 0 0 -0.027072 0.999633 -50 0 0 0 1 1 0 0 0 0 0.999633 0.027072 0 0 -0.027072 0.999633 -50 0 0 0 1 1 0 0 0 0 0.999633 0.027072 0 0 -0.027072 0.999633 -50 0 0 0 1 1 0 0 0 0 0.999633 0.027072 0 0 -0.027072 0.999633 -50 0 0 0 1 1 0 0 0 0 0.999633 0.027072 0 0 -0.027072 0.999633 -50 0 0 0 1 1 0 0 0 0 0.999633 0.027072 0 0 -0.027072 0.999633 -50 0 0 0 1 1 0 0 0 0 0.999633 0.027072 0 0 -0.027072 0.999633 -50 0 0 0 1 1 0 0 0 0 0.999633 0.027072 0 0 -0.027072 0.999633 -50 0 0 0 1 1 0 0 0 0 0.999633 0.027072 0 0 -0.027072 0.999633 -50 0 0 0 1 1 0 0 0 0 0.999633 0.027072 0 0 -0.027072 0.999633 -50 0 0 0 1 1 0 0 0 0 0.999633 0.027072 0 0 -0.027072 0.999633 -50 0 0 0 1 1 0 0 0 0 0.999633 0.027072 0 0 -0.027072 0.999633 -50 0 0 0 1 1 0 0 0 0 0.999633 0.027072 0 0 -0.027072 0.999633 -50 0 0 0 1 1 0 0 0 0 0.999633 0.027072 0 0 -0.027072 0.999633 -50 0 0 0 1 1 0 0 0 0 0.999633 0.027072 0 0 -0.027072 0.999633 -50 0 0 0 1 1 0 0 0 0 0.999633 0.027072 0 0 -0.027072 0.999633 -50 0 0 0 1 1 0 0 0 0 0.999633 0.027072 0 0 -0.027072 0.999633 -50 0 0 0 1 1 0 0 0 0 0.999633 0.027072 0 0 -0.027072 0.999633 -50 0 0 0 1 1 0 0 0 0 0.999633 0.027072 0 0 -0.027072 0.999633 -50 0 0 0 1 1 0 0 0 0 0.999633 0.027072 0 0 -0.027072 0.999633 -50 0 0 0 1 1 0 0 0 0 0.999633 0.027072 0 0 -0.027072 0.999633 -50 0 0 0 1 1 0 0 0 0 0.999633 0.027072 0 0 -0.027072 0.999633 -50 0 0 0 1 1 0 0 0 0 0.999633 0.027072 0 0 -0.027072 0.999633 -50 0 0 0 1 1 0 0 0 0 0.999633 0.027072 0 0 -0.027072 0.999633 -50 0 0 0 1 1 0 0 0 0 0.999633 0.027072 0 0 -0.027072 0.999633 -50 0 0 0 1 1 0 0 0 0 0.999633 0.027072 0 0 -0.027072 0.999633 -50 0 0 0 1 1 0 0 0 0 0.999633 0.027072 0 0 -0.027072 0.999633 -50 0 0 0 1 1 0 0 0 0 0.999633 0.027072 0 0 -0.027072 0.999633 -50 0 0 0 1 1 0 0 0 0 0.999633 0.027072 0 0 -0.027072 0.999633 -50 0 0 0 1 1 0 0 0 0 0.999633 0.027072 0 0 -0.027072 0.999633 -50 0 0 0 1 1 0 0 0 0 0.999633 0.027072 0 0 -0.027072 0.999633 -50 0 0 0 1 1 0 0 0 0 0.999633 0.027072 0 0 -0.027072 0.999633 -50 0 0 0 1 1 0 0 0 0 0.999633 0.027072 0 0 -0.027072 0.999633 -50 0 0 0 1</float_array>
        <technique_common>
          <accessor source="#Box01-node-transform_Box01-node_transform-output-array" count="101" stride="16">
            <param name="TRANSFORM" type="float4x4"/>
          </accessor>
        </technique_common>
      </source>
      <source id="Box01-node-transform_Box01-node_transform-interpolations">
        <Name_array id="Box01-node-transform_Box01-node_transform-interpolations-array" count="101">LINEAR LINEAR LINEAR LINEAR LINEAR LINEAR LINEAR LINEAR LINEAR LINEAR LINEAR LINEAR LINEAR LINEAR LINEAR LINEAR LINEAR LINEAR LINEAR LINEAR LINEAR LINEAR LINEAR LINEAR LINEAR LINEAR LINEAR LINEAR LINEAR LINEAR LINEAR LINEAR LINEAR LINEAR LINEAR LINEAR LINEAR LINEAR LINEAR LINEAR LINEAR LINEAR LINEAR LINEAR LINEAR LINEAR LINEAR LINEAR LINEAR LINEAR LINEAR LINEAR LINEAR LINEAR LINEAR LINEAR LINEAR LINEAR LINEAR LINEAR LINEAR LINEAR LINEAR LINEAR LINEAR LINEAR LINEAR LINEAR LINEAR LINEAR LINEAR LINEAR LINEAR LINEAR LINEAR LINEAR LINEAR LINEAR LINEAR LINEAR LINEAR LINEAR LINEAR LINEAR LINEAR LINEAR LINEAR LINEAR LINEAR LINEAR LINEAR LINEAR LINEAR LINEAR LINEAR LINEAR LINEAR LINEAR LINEAR LINEAR LINEAR</Name_array>
        <technique_common>
          <accessor source="#Box01-node-transform_Box01-node_transform-interpolations-array" count="101" stride="1">
            <param name="INTERPOLATION" type="Name"/>
          </accessor>
        </technique_common>
      </source>
      <sampler id="Box01-node-transform_Box01-node_transform-sampler">
        <input semantic="INPUT" source="#Box01-node-transform_Box01-node_transform-input"/>
        <input semantic="OUTPUT" source="#Box01-node-transform_Box01-node_transform-output"/>
        <input semantic="INTERPOLATION" source="#Box01-node-transform_Box01-node_transform-interpolations"/>
      </sampler>
      <channel source="#Box01-node-transform_Box01-node_transform-sampler" target="Box01-node/transform"/>
    </animation>
  </library_animations>
  <library_materials>
    <material id="myPhotoMaterial" name="myPhotoMaterial">
      <instance_effect url="#myPhotoMaterial-fx"/>
    </material>
  </library_materials>
  <library_effects>
    <effect id="myPhotoMaterial-fx" name="myPhotoMaterial">
      <profile_COMMON>
        <technique sid="common">
          <phong>
            <emission>
              <color>0 0 0 1</color>
            </emission>
            <ambient>
              <color>0 0 0 1</color>
            </ambient>
            <diffuse>
              <color>0.5 0.5 0.5 1</color>
            </diffuse>
            <specular>
              <color>0.6 0.6 0.6 1</color>
            </specular>
            <shininess>
              <float>100</float>
            </shininess>
            <transparent opaque="A_ONE">
              <color>0 0 0 1</color>
            </transparent>
            <transparency>
              <float>1</float>
            </transparency>
          </phong>
          <extra>
            <technique profile="FCOLLADA">
              <spec_level>
                <float>2</float>
              </spec_level>
            </technique>
          </extra>
        </technique>
      </profile_COMMON>
    </effect>
  </library_effects>
  <library_geometries>
    <geometry id="Box01-mesh" name="Box01">
      <mesh>
        <source id="Box01-mesh-positions">
          <float_array id="Box01-mesh-positions-array" count="24">-50 -50 0 50 -50 0 -50 50 0 50 50 0 -50 -50 100 50 -50 100 -50 50 100 50 50 100</float_array>
          <technique_common>
            <accessor source="#Box01-mesh-positions-array" count="8" stride="3">
              <param name="X" type="float"/>
              <param name="Y" type="float"/>
              <param name="Z" type="float"/>
            </accessor>
          </technique_common>
        </source>
        <source id="Box01-mesh-normals">
          <float_array id="Box01-mesh-normals-array" count="72">0 0 -1 0 0 -1 0 0 -1 0 0 -1 0 0 1 0 0 1 0 0 1 0 0 1 0 -1 0 0 -1 0 0 -1 0 0 -1 0 1 0 0 1 0 0 1 0 0 1 0 0 0 1 0 0 1 0 0 1 0 0 1 0 -1 0 0 -1 0 0 -1 0 0 -1 0 0</float_array>
          <technique_common>
            <accessor source="#Box01-mesh-normals-array" count="24" stride="3">
              <param name="X" type="float"/>
              <param name="Y" type="float"/>
              <param name="Z" type="float"/>
            </accessor>
          </technique_common>
        </source>
        <source id="Box01-mesh-map-channel1">
          <float_array id="Box01-mesh-map-channel1-array" count="36">0 0 0 100 0 0 0 100 0 100 100 0 0 0 0 100 0 0 0 100 0 100 100 0 0 0 0 100 0 0 0 100 0 100 100 0</float_array>
          <technique_common>
            <accessor source="#Box01-mesh-map-channel1-array" count="12" stride="3">
              <param name="S" type="float"/>
              <param name="T" type="float"/>
              <param name="P" type="float"/>
            </accessor>
          </technique_common>
        </source>
        <vertices id="Box01-mesh-vertices">
          <input semantic="POSITION" source="#Box01-mesh-positions"/>
        </vertices>
        <triangles material="myPhotoMaterial" count="12">
          <input semantic="VERTEX" source="#Box01-mesh-vertices" offset="0"/>
          <input semantic="NORMAL" source="#Box01-mesh-normals" offset="1"/>
          <input semantic="TEXCOORD" source="#Box01-mesh-map-channel1" offset="2" set="1"/>
          <p>0 0 9 2 1 11 3 2 10 3 2 10 1 3 8 0 0 9 4 4 8 5 5 9 7 6 11 7 6 11 6 7 10 4 4 8 0 8 4 1 9 5 5 10 7 5 10 7 4 11 6 0 8 4 1 12 0 3 13 1 7 14 3 7 14 3 5 15 2 1 12 0 3 16 4 2 17 5 6 18 7 6 18 7 7 19 6 3 16 4 2 20 0 0 21 1 4 22 3 4 22 3 6 23 2 2 20 0</p>
        </triangles>
      </mesh>
    </geometry>
  </library_geometries>
  <library_visual_scenes>
    <visual_scene id="unnamed_scene" name="unnamed_scene">
      <node id="Box01-node" name="Box01" type="NODE">
        <matrix sid="transform">1 0 0 0 0 1 0 0 0 0 1 -50 0 0 0 1</matrix>
        <instance_geometry url="#Box01-mesh">
          <bind_material>
            <technique_common>
              <instance_material symbol="myPhotoMaterial" target="#myPhotoMaterial">
                <bind_vertex_input semantic="CHANNEL1" input_semantic="TEXCOORD" input_set="1"/>
              </instance_material>
            </technique_common>
          </bind_material>
        </instance_geometry>
      </node>
      <extra>
        <technique profile="FCOLLADA">
          <start_time>0</start_time>
          <end_time>3.33333</end_time>
        </technique>
      </extra>
      <extra>
        <technique profile="MAX3D">
          <frame_rate>30</frame_rate>
        </technique>
      </extra>
    </visual_scene>
  </library_visual_scenes>
  <scene>
    <instance_visual_scene url="#unnamed_scene"/>
  </scene>
</COLLADA>
