<?xml version="1.0" encoding="utf-8"?>
<COLLADA xmlns="http://www.collada.org/2005/11/COLLADASchema" version="1.4.1">
  <asset>
    <contributor>
      <author>Rob</author>
      <authoring_tool>3dsMax 11 - Feeling ColladaMax v3.05B.</authoring_tool>
      <comments>ColladaMax Export Options: ExportNormals=1;ExportEPolyAsTriangles=1;ExportXRefs=1;ExportSelected=1;ExportTangents=0;ExportAnimations=1;SampleAnim=0;ExportAnimClip=0;BakeMatrices=1;ExportRelativePaths=1;AnimStart=0;AnimEnd=3.33333;</comments>
    </contributor>
    <created>2009-11-22T23:55:28Z</created>
    <modified>2009-11-22T23:55:32Z</modified>
    <unit meter="0.0254" name="inch"/>
    <up_axis>Z_UP</up_axis>
  </asset>
  <library_materials>
    <material id="ColorMaterial_57E18F00" name="ColorMaterial_57E18F00">
      <instance_effect url="#ColorMaterial_57E18F00-fx"/>
    </material>
  </library_materials>
  <library_effects>
    <effect id="ColorMaterial_57E18F00-fx">
      <profile_COMMON>
        <technique sid="common">
          <phong>
            <emission>
              <color>0 0 0 1</color>
            </emission>
            <ambient>
              <color>0.341176 0.882353 0.560784 1</color>
            </ambient>
            <diffuse>
              <color>0.341176 0.882353 0.560784 1</color>
            </diffuse>
            <specular>
              <color>1 1 1 1</color>
            </specular>
            <shininess>
              <float>10</float>
            </shininess>
            <reflective>
              <color>0 0 0 1</color>
            </reflective>
            <reflectivity>
              <float>1</float>
            </reflectivity>
            <transparent opaque="A_ONE">
              <color>1 1 1 1</color>
            </transparent>
            <transparency>
              <float>1</float>
            </transparency>
          </phong>
          <extra>
            <technique profile="FCOLLADA">
              <spec_level>
                <float>0.2</float>
              </spec_level>
            </technique>
          </extra>
        </technique>
      </profile_COMMON>
    </effect>
  </library_effects>
  <library_geometries>
    <geometry id="Torus_Knot01-mesh" name="Torus_Knot01">
      <mesh>
        <source id="Torus_Knot01-mesh-positions">
          <float_array id="Torus_Knot01-mesh-positions-array" count="540">27.677 -0.003963 17.7775 23.3387 -4.20267 28.2918 17.1661 4.20663 22.1125 30.7999 4.26488 20.3396 26.8834 3.54418 31.7913 19.9072 8.68329 23.3106 33.2593 10.4737 20.6025 29.9655 13.7492 31.8017 21.7712 13.6197 22.8666 34.0381 18.4743 16.9593 30.8703 25.1346 26.5826 22.3339 19.7763 19.8433 31.8003 26.8826 8.41538 28.1216 35.5595 16.0429 20.4416 26.8107 12.6551 25.8774 33.1722 -3.88292 21.3395 42.7922 1.93636 15.2832 32.2888 1.94656 17.3607 35.1676 -16.3278 11.7363 45.0402 -12.0971 8.01645 34.0155 -8.68855 8.53277 32.7821 -25.299 1.54374 42.2624 -22.4221 1.19556 32.2021 -15.6642 1.0719 27.6444 -29.5801 -7.40458 36.0123 -27.3158 -3.39262 28.8734 -18.3748 -4.64073 21.485 -29.9562 -13.9149 28.7044 -26.9779 -5.95678 25.252 -18.5073 -8.8922 15.3938 -27.677 -17.7889 22.3929 -23.3342 -7.40976 21.2604 -17.1706 -11.9339 9.91804 -23.7603 -19.7978 17.4444 -18.4204 -8.27182 17.066 -14.6776 -13.9 5.20479 -18.9978 -20.7917 13.3701 -13.2679 -8.83832 13.0516 -11.2643 -15 1.13841 -13.9361 -21.3109 9.73308 -8.16508 -9.22948 9.40439 -7.20003 -15.4987 -2.47596 -8.85919 -21.5903 6.29315 -3.11504 -9.47377 6.08004 -2.73593 -15.625 -5.82435 -3.8829 -21.6872 2.91181 1.942 -9.56282 2.91254 1.94091 -15.5435 -9.07355 0.946746 -21.5679 -0.51897 7.07263 -9.45143 -0.304725 6.69079 -15.3618 -12.3777 5.59652 -21.1298 -4.11365 12.3371 -9.04879 -3.78458 11.3676 -15.1235 -15.8774 10.0202 -20.1793 -8.03376 17.7607 -8.22725 -7.71527 15.7491 -14.7412 -19.6975 14.1436 -18.3919 -12.5554 23.2354 -6.87036 -12.1756 19.4793 -13.8417 -23.9672 17.7775 -15.3091 -18.1106 28.2917 -4.94009 -16.9694 22.1126 -11.7064 -28.8059 20.3396 -10.3724 -25.0536 31.7912 -2.43353 -21.5819 23.3106 -7.55917 -34.0402 20.6025 -3.07564 -32.8255 31.8017 0.909482 -25.6643 22.8665 -1.0199 -38.7149 16.9594 6.33192 -39.3017 26.5827 5.95999 -29.2299 19.8432 7.38089 -40.9812 8.41534 16.7346 -42.1338 16.0429 12.9978 -31.1083 12.6553 15.7892 -38.9966 -3.88281 26.3893 -39.8767 1.93654 20.3214 -29.38 1.94647 21.7757 -32.6186 -16.3277 33.1378 -32.6841 -12.097 25.45 -23.9502 -8.68852 24.1238 -23.7805 -25.2991 35.8285 -22.4684 -22.4219 27.2901 -17.1366 -15.6641 23.4048 -14.7507 -29.58 34.8898 -11.5935 -27.3159 26.7015 -11.4986 -18.3748 20.927 -6.72346 -29.9563 31.8162 -2.30159 -26.9778 24.8473 -7.46747 -18.5074 17.7776 0.00392 -27.6771 28.2875 4.20899 -23.3344 22.1169 -4.21306 -17.1705 14.5563 5.37595 -23.7604 25.0062 8.42315 -18.4206 18.9155 -1.36935 -14.6775 11.4575 9.43558 -18.9978 21.9749 11.3209 -13.268 15.722 1.12839 -11.2644 8.48595 12.4211 -13.9362 19.0845 13.5893 -8.16503 12.7593 3.2907 -7.20017 5.60515 14.6603 -8.8592 16.2453 15.5511 -3.1152 10.0024 5.16449 -2.73598 2.7685 16.4438 -3.88296 13.3654 17.3257 1.94182 7.30374 6.82538 1.94091 -0.086119 17.9978 0.946678 10.3346 18.9378 7.07248 4.46185 8.33753 6.69075 -3.03836 19.4925 5.59636 7.00247 20.3557 12.337 1.24683 9.72876 11.3675 -6.18853 21.036 10.0202 3.13229 21.4927 17.7606 -2.5678 10.9826 15.749 -9.68807 22.6149 14.1436 -1.6771 22.2057 23.2352 -7.10894 12.0377 19.4793 -13.8353 23.9708 17.7775 -8.02947 22.3134 28.2915 -12.2258 12.7629 22.1126 -19.0934 24.541 20.3395 -16.5109 21.5097 31.7912 -17.4733 12.8985 23.3106 -25.6999 23.5666 20.6025 -26.8896 19.0764 31.8017 -22.6806 12.0446 22.8666 -33.018 20.2409 16.9596 -37.2021 14.1674 26.5828 -28.2937 9.45355 19.8433 -39.1811 14.0987 8.4156 -44.8561 6.57457 16.0433 -33.4395 4.2978 12.6554 -41.6667 5.82459 -3.88255 -47.7288 -2.9152 1.93692 -35.6045 -2.90868 1.9467 -39.1366 -2.54881 -16.3274 -44.8743 -12.3558 -12.0966 -33.4665 -10.0652 -8.68847 -32.6566 -9.00141 -25.2989 -37.3726 -19.794 -22.4217 -28.4858 -15.0655 -15.664 -24.4771 -12.8937 -29.5799 -27.4854 -24.4186 -27.3158 -23.309 -17.3748 -18.3748 -16.2866 -14.7614 -29.9563 -17.9014 -26.4028 -26.978 -18.8907 -17.7848 -18.5073 -8.88559 -15.3977 -27.6771 -10.4986 -26.6022 -23.3344 -14.7073 -17.0473 -17.1706 -2.62266 -15.294 -23.7605 -5.20844 -25.8676 -18.4207 -10.6438 -15.6968 -14.6776 2.44253 -14.6403 -18.9979 -1.18328 -24.6913 -13.2681 -6.88393 -14.1799 -11.2646 6.51405 -13.5597 -13.9362 2.22623 -23.3223 -8.16518 -3.52988 -12.6952 -7.20033 9.89348 -12.1844 -8.8594 5.34502 -21.8444 -3.11523 -0.528682 -11.2446 -2.73607 12.8564 -10.6195 -3.8831 8.32174 -20.2376 1.94175 2.25901 -9.73796 1.94078 15.6296 -8.92443 0.946502 11.2333 -18.4189 7.07247 4.98952 -8.03286 6.69061 18.4001 -7.11503 5.59623 14.1273 -16.2423 12.3369 7.80191 -5.94418 11.3675 21.3119 -5.15859 10.0201 17.0471 -13.4591 17.7605 10.795 -3.26761 15.7489 24.429 -2.91749 14.1435 20.0692 -9.65039 23.2352 13.9793 0.137558 19.4791</float_array>
          <technique_common>
            <accessor source="#Torus_Knot01-mesh-positions-array" count="180" stride="3">
              <param name="X" type="float"/>
              <param name="Y" type="float"/>
              <param name="Z" type="float"/>
            </accessor>
          </technique_common>
        </source>
        <source id="Torus_Knot01-mesh-normals">
          <float_array id="Torus_Knot01-mesh-normals-array" count="3240">0.726199 -0.655548 0.207106 0.726199 -0.655548 0.207106 0.726199 -0.655548 0.207106 0.865306 -0.472063 0.168528 0.865306 -0.472063 0.168528 0.865306 -0.472063 0.168528 -0.75589 0.051019 0.652707 -0.75589 0.051019 0.652707 -0.75589 0.051019 0.652707 -0.59052 0.149323 0.793088 -0.59052 0.149323 0.793088 -0.59052 0.149323 0.793088 -0.123267 0.326294 -0.937197 -0.123267 0.326293 -0.937197 -0.123267 0.326293 -0.937197 -0.108459 0.568703 -0.815361 -0.108459 0.568703 -0.815361 -0.108459 0.568703 -0.815361 0.862759 -0.356915 0.358132 0.862759 -0.356915 0.358132 0.862759 -0.356915 0.358132 0.914499 -0.276502 0.29536 0.914499 -0.276502 0.29536 0.914499 -0.276502 0.29536 -0.720986 0.217086 0.658067 -0.720986 0.217086 0.658067 -0.720986 0.217086 0.658067 -0.636967 0.304229 0.708321 -0.636967 0.304229 0.708321 -0.636967 0.304229 0.708321 -0.19698 -0.013791 -0.98031 -0.19698 -0.013791 -0.980311 -0.19698 -0.013791 -0.980311 -0.213343 0.125531 -0.968879 -0.213344 0.125531 -0.968879 -0.213343 0.125531 -0.968879 0.956725 0.038229 0.288471 0.956725 0.038229 0.288471 0.956725 0.038229 0.288471 0.961944 0.046947 0.269183 0.961944 0.046947 0.269183 0.961944 0.046947 0.269183 -0.704993 0.34107 0.621817 -0.704993 0.34107 0.621817 -0.704993 0.34107 0.621817 -0.687422 0.369779 0.625072 -0.687422 0.369779 0.625072 -0.687422 0.369779 0.625072 -0.260969 -0.406186 -0.875733 -0.260969 -0.406186 -0.875733 -0.260969 -0.406186 -0.875733 -0.27717 -0.375701 -0.884322 -0.27717 -0.375701 -0.884322 -0.27717 -0.375701 -0.884322 0.940735 0.32997 0.078341 0.940735 0.32997 0.078341 0.940735 0.32997 0.078341 0.940474 0.330031 0.081164 0.940474 0.330031 0.081164 0.940474 0.330031 0.081164 -0.71031 0.398987 0.579888 -0.71031 0.398987 0.579888 -0.71031 0.398987 0.579888 -0.709358 0.401304 0.579454 -0.709358 0.401304 0.579454 -0.709358 0.401304 0.579454 -0.236892 -0.724808 -0.646943 -0.236892 -0.724808 -0.646943 -0.236892 -0.724808 -0.646943 -0.240108 -0.722595 -0.648232 -0.240108 -0.722595 -0.648232 -0.240108 -0.722595 -0.648232 0.853328 0.497287 -0.156646 0.853328 0.497287 -0.156646 0.853328 0.497287 -0.156646 0.853259 0.497942 -0.154927 0.853259 0.497942 -0.154927 0.853259 0.497942 -0.154927 -0.718557 0.414864 0.558178 -0.718557 0.414864 0.558178 -0.718557 0.414864 0.558178 -0.718609 0.414641 0.558277 -0.718609 0.414641 0.558277 -0.718609 0.414641 0.558277 -0.142078 -0.907321 -0.395706 -0.142078 -0.907321 -0.395706 -0.142078 -0.907321 -0.395706 -0.141949 -0.907354 -0.395676 -0.141949 -0.907354 -0.395676 -0.141949 -0.907354 -0.395676 0.7143 0.576786 -0.396351 0.7143 0.576786 -0.396351 0.7143 0.576786 -0.396351 0.7143 0.576744 -0.396412 0.7143 0.576744 -0.396412 0.7143 0.576744 -0.396412 -0.718502 0.414993 0.558154 -0.718502 0.414993 0.558154 -0.718502 0.414993 0.558154 -0.718496 0.414829 0.558283 -0.718496 0.414829 0.558283 -0.718496 0.414829 0.558283 -0.005975 -0.987695 -0.156277 -0.005975 -0.987695 -0.156277 -0.005975 -0.987695 -0.156277 -0.003472 -0.987751 -0.156001 -0.003472 -0.987751 -0.156001 -0.003472 -0.987751 -0.156001 0.505251 0.569287 -0.648563 0.505251 0.569287 -0.648563 0.505251 0.569287 -0.648563 0.505027 0.566691 -0.651006 0.505027 0.566691 -0.651006 0.505027 0.566691 -0.651006 -0.700982 0.414237 0.580545 -0.700982 0.414237 0.580545 -0.700982 0.414237 0.580545 -0.701963 0.415655 0.578342 -0.701963 0.415655 0.578342 -0.701963 0.415655 0.578342 0.180461 -0.980452 0.078411 0.180461 -0.980452 0.078411 0.180461 -0.980452 0.078411 0.184957 -0.979607 0.078488 0.184957 -0.979607 0.078488 0.184957 -0.979607 0.078488 0.199891 0.439454 -0.875742 0.199891 0.439454 -0.875742 0.199891 0.439454 -0.875742 0.196457 0.414481 -0.8886 0.196457 0.414481 -0.8886 0.196457 0.414481 -0.8886 -0.645315 0.428988 0.63209 -0.645315 0.428988 0.63209 -0.645315 0.428988 0.63209 -0.669677 0.429945 0.605541 -0.669677 0.429945 0.605541 -0.669677 0.429945 0.605541 0.453591 -0.848125 0.273751 0.453591 -0.848125 0.273751 0.453591 -0.848125 0.273751 0.431912 -0.858243 0.277257 0.431913 -0.858243 0.277257 0.431912 -0.858243 0.277257 -0.153701 0.20163 -0.967327 -0.153701 0.20163 -0.967327 -0.153701 0.20163 -0.967327 -0.163337 0.100125 -0.981476 -0.163337 0.100125 -0.981476 -0.163337 0.100125 -0.981476 -0.522042 0.497115 0.693072 -0.522042 0.497115 0.693072 -0.522042 0.497115 0.693072 -0.642505 0.431775 0.633054 -0.642505 0.431775 0.633054 -0.642505 0.431775 0.633054 0.779969 -0.562318 0.274675 0.779969 -0.562319 0.274675 0.779969 -0.562318 0.274675 0.678571 -0.650226 0.341683 0.678571 -0.650226 0.341683 0.678571 -0.650226 0.341683 -0.450795 -0.019287 -0.892419 -0.450795 -0.019287 -0.892419 -0.450795 -0.019287 -0.892419 -0.450758 -0.222401 -0.864497 -0.450758 -0.222401 -0.864497 -0.450758 -0.222401 -0.864497 -0.349482 0.620039 0.702435 -0.349482 0.620039 0.702435 -0.349482 0.620039 0.702435 -0.558598 0.439007 0.703734 -0.558598 0.439007 0.703734 -0.558598 0.439007 0.703734 0.943738 -0.32698 0.049421 0.943738 -0.32698 0.049421 0.943738 -0.32698 0.049421 0.835012 -0.486944 0.256202 0.835012 -0.486944 0.256202 0.835012 -0.486944 0.256202 -0.656095 -0.162667 -0.736939 -0.656095 -0.162667 -0.736939 -0.656095 -0.162667 -0.736939 -0.635962 -0.398224 -0.661037 -0.635962 -0.398224 -0.661037 -0.635962 -0.398224 -0.661037 -0.189469 0.729504 0.65721 -0.189469 0.729504 0.65721 -0.189469 0.729504 0.65721 -0.390144 0.52837 0.754064 -0.390144 0.52837 0.754064 -0.390144 0.52837 0.754064 0.945311 -0.286713 -0.155508 0.945311 -0.286713 -0.155508 0.945311 -0.286713 -0.155508 0.89998 -0.422152 0.108738 0.89998 -0.422152 0.108738 0.89998 -0.422152 0.108738 -0.7786 -0.254704 -0.573505 -0.7786 -0.254704 -0.573505 -0.7786 -0.254704 -0.573505 -0.75281 -0.437879 -0.491467 -0.75281 -0.437879 -0.491467 -0.75281 -0.437879 -0.491467 -0.080968 0.789366 0.60856 -0.080968 0.789366 0.60856 -0.080968 0.789366 0.60856 -0.215317 0.65002 0.728775 -0.215317 0.65002 0.728775 -0.215317 0.65002 0.728775 0.906986 -0.339683 -0.24898 0.906986 -0.339683 -0.24898 0.906986 -0.339683 -0.24898 0.908077 -0.417086 -0.037892 0.908077 -0.417085 -0.037892 0.908077 -0.417086 -0.037892 -0.838881 -0.320617 -0.439868 -0.838881 -0.320617 -0.439868 -0.838881 -0.320617 -0.439868 -0.820596 -0.422631 -0.384715 -0.820596 -0.422631 -0.384715 -0.820596 -0.422631 -0.384715 -0.024039 0.815246 0.578616 -0.024039 0.815246 0.578616 -0.024039 0.815246 0.578616 -0.090804 0.745521 0.660267 -0.090804 0.745521 0.660267 -0.090804 0.745521 0.660267 0.878758 -0.394153 -0.269126 0.878757 -0.394153 -0.269126 0.878757 -0.394153 -0.269126 0.891516 -0.427531 -0.14972 0.891516 -0.427531 -0.14972 0.891516 -0.427531 -0.14972 -0.861237 -0.370206 -0.348164 -0.861237 -0.370206 -0.348164 -0.861237 -0.370206 -0.348164 -0.853084 -0.408065 -0.325164 -0.853084 -0.408065 -0.325164 -0.853084 -0.408065 -0.325164 -0.003072 0.826552 0.562851 -0.003072 0.826552 0.562851 -0.003072 0.826552 0.562851 -0.025788 0.80245 0.596161 -0.025788 0.80245 0.596161 -0.025788 0.80245 0.596161 0.867433 -0.420629 -0.265767 0.867433 -0.420629 -0.265767 0.867433 -0.420629 -0.265767 0.874974 -0.430888 -0.220807 0.874974 -0.430887 -0.220807 0.874974 -0.430887 -0.220807 -0.865846 -0.404641 -0.294237 -0.865846 -0.404641 -0.294237 -0.865846 -0.404641 -0.294237 -0.864473 -0.410066 -0.290744 -0.864473 -0.410066 -0.290744 -0.864473 -0.410066 -0.290744 0.000000 0.831292 0.555836 0.000000 0.831292 0.555836 0.000000 0.831292 0.555836 -0.002981 0.827997 0.560725 -0.002981 0.827997 0.560725 -0.002981 0.827997 0.560725 0.865982 -0.421551 -0.269016 0.865982 -0.421551 -0.269016 0.865982 -0.42155 -0.269016 0.867328 -0.422871 -0.262532 0.867328 -0.422871 -0.262532 0.867328 -0.422871 -0.262532 -0.867511 -0.419367 -0.2675 -0.86751 -0.419367 -0.2675 -0.867511 -0.419367 -0.2675 -0.865914 -0.424869 -0.26397 -0.865914 -0.424869 -0.26397 -0.865914 -0.424869 -0.26397 0.002816 0.831302 0.555814 0.002816 0.831302 0.555814 0.002816 0.831302 0.555814 0.000000 0.827951 0.5608 0.000000 0.827951 0.5608 0.000000 0.827951 0.5608 0.864336 -0.406746 -0.295773 0.864335 -0.406746 -0.295773 0.864336 -0.406746 -0.295773 0.865937 -0.408094 -0.289157 0.865937 -0.408094 -0.289157 0.865937 -0.408094 -0.289157 -0.878019 -0.405694 -0.25396 -0.878019 -0.405694 -0.25396 -0.878019 -0.405694 -0.25396 -0.865656 -0.444063 -0.231189 -0.865656 -0.444063 -0.231189 -0.865655 -0.444063 -0.231189 0.022624 0.826506 0.562474 0.022624 0.826506 0.562474 0.022624 0.826506 0.562474 0.004614 0.802461 0.596687 0.004614 0.802461 0.596687 0.004614 0.802461 0.596687 0.850739 -0.383948 -0.358925 0.850739 -0.383948 -0.358925 0.850739 -0.383948 -0.358925 0.863658 -0.394346 -0.313985 0.863658 -0.394346 -0.313985 0.863658 -0.394346 -0.313985 -0.905685 -0.35486 -0.231969 -0.905685 -0.35486 -0.231969 -0.905685 -0.35486 -0.231969 -0.869473 -0.459984 -0.180087 -0.869473 -0.459984 -0.180087 -0.869473 -0.459984 -0.180087 0.075149 0.814379 0.575447 0.075149 0.814379 0.575447 0.075149 0.814379 0.575447 0.032935 0.747023 0.663981 0.032935 0.747024 0.663981 0.032935 0.747024 0.663981 0.808937 -0.35407 -0.469314 0.808937 -0.35407 -0.469314 0.808937 -0.35407 -0.469314 0.851242 -0.388278 -0.353027 0.851242 -0.388278 -0.353027 0.851242 -0.388278 -0.353027 -0.947503 -0.273537 -0.165577 -0.947503 -0.273537 -0.165577 -0.947503 -0.273537 -0.165577 -0.878219 -0.46777 -0.099613 -0.878219 -0.46777 -0.099613 -0.878219 -0.46777 -0.099613 0.167924 0.786301 0.594586 0.167924 0.786301 0.594586 0.167924 0.786301 0.594586 0.108081 0.656909 0.746183 0.108081 0.656909 0.746183 0.108081 0.656909 0.746183 0.716943 -0.305813 -0.626474 0.716943 -0.305814 -0.626474 0.716943 -0.305813 -0.626474 0.81521 -0.38523 -0.432471 0.81521 -0.38523 -0.432471 0.81521 -0.38523 -0.432471 -0.975815 -0.218102 -0.014703 -0.975815 -0.218102 -0.014703 -0.975815 -0.218102 -0.014703 -0.880987 -0.47281 0.017672 -0.880987 -0.47281 0.017672 -0.880987 -0.47281 0.017672 0.290542 0.727235 0.621864 0.290542 0.727235 0.621864 0.290542 0.727235 0.621864 0.244591 0.540636 0.804915 0.244591 0.540636 0.804915 0.244591 0.540636 0.804914 0.558944 -0.214873 -0.800881 0.558944 -0.214873 -0.800881 0.558944 -0.214873 -0.800881 0.730387 -0.3469 -0.588384 0.730386 -0.3469 -0.588384 0.730387 -0.3469 -0.588384 -0.930831 -0.301106 0.207095 -0.930831 -0.301106 0.207095 -0.930831 -0.301106 0.207095 -0.841462 -0.513367 0.168514 -0.841462 -0.513367 0.168514 -0.841462 -0.513367 0.168514 0.42212 0.629127 0.652698 0.42212 0.629127 0.652698 0.42212 0.629127 0.652698 0.424565 0.436715 0.79311 0.424565 0.436715 0.79311 0.424565 0.436716 0.79311 0.344196 -0.056374 -0.937204 0.344196 -0.056374 -0.937204 0.344196 -0.056374 -0.937204 0.546771 -0.190431 -0.815339 0.546771 -0.190431 -0.815339 0.546771 -0.190431 -0.815339 -0.740479 -0.568711 0.358134 -0.740479 -0.568711 0.358134 -0.740478 -0.568711 0.358134 -0.696709 -0.653725 0.295363 -0.696709 -0.653725 0.295363 -0.696709 -0.653725 0.295363 0.548495 0.515852 0.658065 0.548495 0.515852 0.658065 0.548495 0.515852 0.658065 0.581955 0.399506 0.708325 0.581955 0.399506 0.708324 0.581955 0.399506 0.708324 0.086532 0.177494 -0.98031 0.086532 0.177494 -0.98031 0.086532 0.177494 -0.98031 0.215389 0.121994 -0.968878 0.215389 0.121994 -0.968878 0.215389 0.121994 -0.968878 -0.445257 -0.847661 0.288474 -0.445257 -0.847661 0.288474 -0.445257 -0.847661 0.288474 -0.440316 -0.85654 0.269186 -0.440316 -0.85654 0.269186 -0.440316 -0.85654 0.269186 0.647871 0.44001 0.621815 0.647871 0.44001 0.621815 0.647871 0.44001 0.621815 0.663949 0.410435 0.625071 0.663949 0.410435 0.625071 0.663949 0.410435 0.625071 -0.221296 0.429097 -0.87573 -0.221296 0.429097 -0.87573 -0.221296 0.429097 -0.87573 -0.186777 0.427884 -0.884324 -0.186777 0.427884 -0.884324 -0.186777 0.427884 -0.884324 -0.184606 -0.979685 0.078342 -0.184606 -0.979685 0.078342 -0.184606 -0.979685 0.078342 -0.184423 -0.97949 0.081167 -0.184423 -0.97949 0.081167 -0.184423 -0.97949 0.081167 0.700688 0.415652 0.579887 0.700688 0.415652 0.579887 0.700688 0.415652 0.579887 0.702218 0.413671 0.579454 0.702218 0.413671 0.579454 0.702218 0.413671 0.579454 -0.509254 0.567561 -0.646942 -0.509254 0.567561 -0.646942 -0.509254 0.567561 -0.646942 -0.505728 0.569241 -0.648231 -0.505728 0.569241 -0.648231 -0.505728 0.569241 -0.648231 0.003998 -0.987647 -0.156646 0.003998 -0.987647 -0.156646 0.003998 -0.987647 -0.156646 0.0046 -0.987915 -0.154926 0.0046 -0.987915 -0.154926 0.0046 -0.987915 -0.154926 0.718562 0.414857 0.558178 0.718562 0.414857 0.558178 0.718562 0.414857 0.558178 0.718394 0.415014 0.558277 0.718394 0.415014 0.558277 0.718394 0.415014 0.558277 -0.714724 0.576701 -0.395708 -0.714724 0.576701 -0.395708 -0.714724 0.576701 -0.395708 -0.714818 0.576605 -0.395679 -0.714818 0.576605 -0.395679 -0.714818 0.576605 -0.395679 0.142359 -0.906995 -0.39635 0.142359 -0.906995 -0.39635 0.142359 -0.906996 -0.39635 0.142324 -0.906975 -0.396409 0.142324 -0.906975 -0.396409 0.142324 -0.906975 -0.396409 0.718646 0.414744 0.558154 0.718646 0.414744 0.558154 0.718646 0.414744 0.558154 0.7185 0.414822 0.558283 0.718501 0.414822 0.558283 0.7185 0.414822 0.558283 -0.852382 0.499022 -0.156277 -0.852382 0.499022 -0.156277 -0.852382 0.499022 -0.156277 -0.85368 0.496885 -0.156001 -0.853679 0.496885 -0.156001 -0.85368 0.496885 -0.156001 0.240387 -0.722203 -0.648565 0.240387 -0.722203 -0.648565 0.240387 -0.722203 -0.648565 0.238255 -0.720715 -0.651002 0.238255 -0.720715 -0.651002 0.238255 -0.720715 -0.651002 0.709229 0.399951 0.580546 0.709228 0.399951 0.580546 0.709228 0.399951 0.580546 0.71095 0.400092 0.57834 0.71095 0.400092 0.57834 0.71095 0.400092 0.57834 -0.939326 0.333944 0.078412 -0.939326 0.333944 0.078412 -0.939326 0.333944 0.078412 -0.940843 0.329626 0.078489 -0.940843 0.329626 0.078489 -0.940843 0.329626 0.078489 0.28063 -0.392835 -0.875744 0.28063 -0.392835 -0.875744 0.28063 -0.392835 -0.875744 0.260734 -0.377385 -0.888594 0.260734 -0.377385 -0.888594 0.260734 -0.377385 -0.888594 0.694177 0.34437 0.632081 0.694177 0.34437 0.632081 0.694177 0.34437 0.632081 0.707178 0.364975 0.605551 0.707178 0.364975 0.605551 0.707178 0.364975 0.605551 -0.961292 0.03126 0.273751 -0.961293 0.03126 0.273751 -0.961293 0.03126 0.273751 -0.959218 0.055066 0.277253 -0.959218 0.055066 0.277253 -0.959218 0.055066 0.277253 0.251482 0.032277 -0.967324 0.251482 0.032277 -0.967324 0.251482 0.032277 -0.967324 0.16836 0.091398 -0.981479 0.16836 0.091398 -0.981479 0.16836 0.091398 -0.981479 0.691534 0.203529 0.693078 0.691534 0.203529 0.693078 0.691534 0.203529 0.693078 0.695178 0.340574 0.633038 0.695178 0.340574 0.633038 0.695178 0.340574 0.633038 -0.87696 -0.394338 0.274661 -0.87696 -0.394338 0.274661 -0.87696 -0.394338 0.274661 -0.9024 -0.262528 0.341692 -0.9024 -0.262528 0.341692 -0.9024 -0.262528 0.341692 0.208687 0.400049 -0.892419 0.208687 0.400049 -0.892419 0.208687 0.400049 -0.892419 0.032791 0.501563 -0.8645 0.032791 0.501563 -0.8645 0.032791 0.501563 -0.8645 0.711706 -0.007352 0.702439 0.711706 -0.007352 0.702439 0.711706 -0.007352 0.702439 0.659499 0.264225 0.703738 0.659499 0.264225 0.703738 0.659499 0.264225 0.703738 -0.755058 -0.653792 0.049436 -0.755058 -0.653792 0.049436 -0.755057 -0.653792 0.049436 -0.839213 -0.479674 0.256191 -0.839213 -0.479674 0.256191 -0.839213 -0.479674 0.256191 0.187164 0.649529 -0.736941 0.187164 0.649529 -0.736941 0.187164 0.649529 -0.736941 -0.026878 0.749862 -0.661048 -0.026878 0.749862 -0.661048 -0.026878 0.749862 -0.661048 0.726501 -0.200653 0.657217 0.726501 -0.200653 0.657217 0.726501 -0.200653 0.657217 0.652662 0.073684 0.754057 0.652662 0.073684 0.754057 0.652662 0.073684 0.754057 -0.720957 -0.67531 -0.155494 -0.720957 -0.67531 -0.155494 -0.720957 -0.67531 -0.155494 -0.815582 -0.568333 0.108735 -0.815582 -0.568333 0.108735 -0.815582 -0.568333 0.108735 0.168749 0.801627 -0.573514 0.168749 0.801626 -0.573514 0.168749 0.801627 -0.573514 -0.002831 0.870902 -0.491449 -0.002831 0.870902 -0.491449 -0.002831 0.870902 -0.491449 0.724096 -0.324596 0.608542 0.724096 -0.324596 0.608542 0.724096 -0.324596 0.608542 0.670574 -0.138507 0.728798 0.670574 -0.138507 0.728798 0.670574 -0.138507 0.728798 -0.747651 -0.615632 -0.249029 -0.747651 -0.615632 -0.249029 -0.747651 -0.615632 -0.249029 -0.815254 -0.577864 -0.037869 -0.815254 -0.577864 -0.037869 -0.815254 -0.577864 -0.037869 0.141762 0.886812 -0.43985 0.141762 0.886812 -0.43985 0.141762 0.886812 -0.43985 0.04433 0.921964 -0.38473 0.04433 0.921964 -0.38473 0.04433 0.921964 -0.38473 0.718031 -0.386786 0.578644 0.718031 -0.386786 0.578644 0.718031 -0.386786 0.578644 0.691047 -0.294157 0.660247 0.691047 -0.294157 0.660247 0.691047 -0.294157 0.660247 -0.78074 -0.563943 -0.269096 -0.78074 -0.563943 -0.269096 -0.78074 -0.563943 -0.269096 -0.816007 -0.558306 -0.149755 -0.816007 -0.558306 -0.149755 -0.816007 -0.558306 -0.149755 0.110018 0.930953 -0.348171 0.110018 0.930953 -0.348171 0.110018 0.930953 -0.348171 0.073135 0.942827 -0.325158 0.073135 0.942827 -0.325158 0.073135 0.942827 -0.325158 0.717355 -0.410621 0.562843 0.717355 -0.410621 0.562843 0.717355 -0.410621 0.562843 0.707835 -0.378882 0.59617 0.707834 -0.378882 0.59617 0.707835 -0.378882 0.59617 -0.797988 -0.540904 -0.265778 -0.797988 -0.540904 -0.265778 -0.797988 -0.540904 -0.265778 -0.810649 -0.542307 -0.220796 -0.810649 -0.542308 -0.220796 -0.810649 -0.542308 -0.220796 0.082491 0.952167 -0.294234 0.082491 0.952167 -0.294234 0.082491 0.952167 -0.294234 0.077114 0.953687 -0.290747 0.077114 0.953687 -0.290747 0.077114 0.953687 -0.290747 0.719918 -0.415645 0.55584 0.719918 -0.415645 0.55584 0.719918 -0.415645 0.55584 0.718557 -0.411421 0.560722 0.718557 -0.411421 0.560722 0.718557 -0.411421 0.560722 -0.798067 -0.539186 -0.269013 -0.798067 -0.539186 -0.269013 -0.798067 -0.539186 -0.269013 -0.79988 -0.539691 -0.262537 -0.79988 -0.539691 -0.262537 -0.79988 -0.539691 -0.262537 0.07057 0.96097 -0.2675 0.07057 0.96097 -0.2675 0.07057 0.96097 -0.2675 0.06501 0.962337 -0.263971 0.06501 0.962337 -0.263971 0.06501 0.962337 -0.263971 0.71852 -0.418089 0.555815 0.71852 -0.418089 0.555815 0.71852 -0.418089 0.555815 0.717027 -0.413976 0.560799 0.717027 -0.413976 0.560799 0.717027 -0.413976 0.560799 -0.78442 -0.545164 -0.295771 -0.78442 -0.545164 -0.295771 -0.78442 -0.545164 -0.295771 -0.786388 -0.545877 -0.289157 -0.786388 -0.545877 -0.289157 -0.786388 -0.545877 -0.289157 0.087681 0.963231 -0.253964 0.087681 0.963231 -0.253964 0.087681 0.963231 -0.253964 0.048252 0.971713 -0.231182 0.048252 0.971713 -0.231182 0.048252 0.971713 -0.231182 0.704464 -0.432856 0.562465 0.704464 -0.432856 0.562465 0.704464 -0.432856 0.562465 0.69264 -0.405223 0.596694 0.69264 -0.405223 0.596694 0.69264 -0.405223 0.596694 -0.757876 -0.544783 -0.358936 -0.757876 -0.544783 -0.358936 -0.757876 -0.544783 -0.358936 -0.773348 -0.550775 -0.313974 -0.773348 -0.550775 -0.313974 -0.773348 -0.550775 -0.313974 0.1455 0.961782 -0.231959 0.1455 0.961782 -0.231959 0.1455 0.961782 -0.231959 0.036396 0.982975 -0.180098 0.036396 0.982975 -0.180098 0.036396 0.982975 -0.180098 0.667694 -0.472258 0.575462 0.667694 -0.472258 0.575462 0.667694 -0.472258 0.575462 0.630483 -0.402047 0.663965 0.630483 -0.402047 0.663965 0.630483 -0.402047 0.663965 -0.711112 -0.52353 -0.469292 -0.711112 -0.52353 -0.469292 -0.711112 -0.52353 -0.469292 -0.761871 -0.543056 -0.353049 -0.761871 -0.543056 -0.353049 -0.761871 -0.543056 -0.353049 0.236822 0.957338 -0.165586 0.236822 0.957338 -0.165586 0.236822 0.957338 -0.165586 0.034009 0.994443 -0.099632 0.034009 0.994443 -0.099632 0.034009 0.994443 -0.099632 0.597001 -0.538553 0.5946 0.597001 -0.538553 0.5946 0.597001 -0.538553 0.5946 0.514881 -0.422052 0.74617 0.514881 -0.422052 0.74617 0.514881 -0.422052 0.74617 -0.623325 -0.468006 -0.626447 -0.623325 -0.468006 -0.626447 -0.623325 -0.468006 -0.626447 -0.741207 -0.513392 -0.432482 -0.741207 -0.513393 -0.432482 -0.741207 -0.513393 -0.432482 0.299042 0.954126 -0.014727 0.299042 0.954126 -0.014727 0.299042 0.954126 -0.014727 0.031004 0.999363 0.017659 0.031004 0.999363 0.017659 0.031004 0.999363 0.017659 0.484552 -0.615228 0.621855 0.484552 -0.615228 0.621855 0.484552 -0.615228 0.621855 0.345907 -0.482109 0.804934 0.345907 -0.482109 0.804934 0.345907 -0.482109 0.804934 -0.465543 -0.376633 -0.800885 -0.465543 -0.376633 -0.800885 -0.465543 -0.376633 -0.800885 -0.665631 -0.459105 -0.588352 -0.665631 -0.459105 -0.588352 -0.665631 -0.459105 -0.588352 0.204648 0.956679 0.207087 0.204648 0.956679 0.207087 0.204648 0.956679 0.207087 -0.023854 0.985412 0.168506 -0.023854 0.985412 0.168506 -0.023854 0.985412 0.168506 0.333782 -0.680118 0.652709 0.333782 -0.680118 0.652709 0.333782 -0.680118 0.652709 0.165928 -0.586032 0.793117 0.165928 -0.586032 0.793117 0.165928 -0.586032 0.793117 -0.22093 -0.269909 -0.937198 -0.22093 -0.269909 -0.937198 -0.22093 -0.269909 -0.937198 -0.438304 -0.37831 -0.815335 -0.438304 -0.37831 -0.815335 -0.438304 -0.37831 -0.815335 -0.12226 0.92563 0.358136 -0.12226 0.92563 0.358136 -0.12226 0.92563 0.358136 -0.217793 0.930233 0.295352 -0.217793 0.930233 0.295352 -0.217793 0.930233 0.295352 0.172502 -0.732935 0.658065 0.172502 -0.732935 0.658065 0.172502 -0.732935 0.658065 0.055003 -0.703738 0.708328 0.055003 -0.703737 0.708328 0.055003 -0.703737 0.708328 0.110433 -0.163688 -0.980312 0.110433 -0.163688 -0.980312 0.110433 -0.163688 -0.980312 -0.002063 -0.247536 -0.968876 -0.002063 -0.247536 -0.968876 -0.002063 -0.247536 -0.968876 -0.51146 0.809437 0.28848 -0.51146 0.809437 0.28848 -0.51146 0.809437 0.28848 -0.521621 0.809598 0.26919 -0.521621 0.809598 0.26919 -0.521621 0.809598 0.26919 0.057125 -0.781078 0.621815 0.057125 -0.781078 0.621815 0.057125 -0.781078 0.621815 0.023474 -0.780214 0.625072 0.023474 -0.780214 0.625072 0.023474 -0.780214 0.625072 0.482249 -0.022903 -0.875735 0.482249 -0.022903 -0.875735 0.482249 -0.022903 -0.875735 0.463937 -0.052192 -0.884329 0.463937 -0.052192 -0.884329 0.463937 -0.052192 -0.884329 -0.756125 0.649721 0.078347 -0.756125 0.649721 0.078347 -0.756125 0.649721 0.078347 -0.756047 0.649464 0.081172 -0.756047 0.649464 0.081172 -0.756047 0.649464 0.081172 0.009622 -0.81464 0.579888 0.009622 -0.81464 0.579888 0.009622 -0.81464 0.579888 0.007141 -0.814973 0.579454 0.007141 -0.814973 0.579454 0.007141 -0.814973 0.579454 0.746145 0.157246 -0.646947 0.746145 0.157246 -0.646947 0.746145 0.157246 -0.646947 0.745837 0.153348 -0.648237 0.745837 0.153349 -0.648237 0.745837 0.153349 -0.648237 -0.857325 0.490365 -0.156641 -0.857325 0.490365 -0.156641 -0.857325 0.490365 -0.156641 -0.857859 0.489977 -0.154919 -0.857859 0.489978 -0.154919 -0.857859 0.489978 -0.154919 -0.000003 -0.829721 0.558179 -0.000003 -0.829721 0.558179 -0.000003 -0.829721 0.558179 0.000215 -0.829654 0.558277 0.000215 -0.829654 0.558278 0.000215 -0.829654 0.558278 0.856799 0.330617 -0.395712 0.856799 0.330617 -0.395712 0.856799 0.330617 -0.395712 0.856764 0.330743 -0.395683 0.856764 0.330743 -0.395683 0.856764 0.330743 -0.395683 -0.856661 0.330216 -0.396345 -0.856661 0.330216 -0.396345 -0.856661 0.330216 -0.396345 -0.856628 0.330235 -0.396401 -0.856628 0.330235 -0.396401 -0.856628 0.330235 -0.396401 -0.000144 -0.829738 0.558153 -0.000144 -0.829738 0.558153 -0.000144 -0.829738 0.558154 -0.000004 -0.829651 0.558283 -0.000004 -0.829651 0.558283 -0.000004 -0.829651 0.558283 0.858356 0.488674 -0.156282 0.858356 0.488674 -0.156282 0.858356 0.488674 -0.156282 0.857156 0.490862 -0.156007 0.857156 0.490862 -0.156007 0.857156 0.490862 -0.156007 -0.745645 0.152925 -0.648559 -0.745644 0.152925 -0.648559 -0.745645 0.152925 -0.648559 -0.743291 0.154026 -0.650995 -0.743291 0.154026 -0.650995 -0.743291 0.154026 -0.650995 -0.008245 -0.814186 0.580545 -0.008245 -0.814186 0.580545 -0.008245 -0.814186 0.580545 -0.008983 -0.815747 0.57834 -0.008983 -0.815747 0.57834 -0.008983 -0.815747 0.57834 0.758869 0.646506 0.078409 0.758869 0.646506 0.078409 0.758869 0.646506 0.078409 0.755892 0.649975 0.078486 0.755892 0.649975 0.078486 0.755892 0.649975 0.078486 -0.480528 -0.046611 -0.87574 -0.480528 -0.046611 -0.87574 -0.480528 -0.046611 -0.87574 -0.4572 -0.037105 -0.88859 -0.4572 -0.037105 -0.88859 -0.4572 -0.037105 -0.88859 -0.048853 -0.773361 0.632081 -0.048853 -0.773361 0.632081 -0.048853 -0.773361 0.632081 -0.037509 -0.794923 0.60555 -0.037509 -0.794923 0.60555 -0.037509 -0.794923 0.60555 0.507726 0.81687 0.273748 0.507726 0.81687 0.273748 0.507726 0.81687 0.273748 0.527305 0.80317 0.27725 0.527305 0.80317 0.27725 0.527305 0.80317 0.27725 -0.097783 -0.233913 -0.967328 -0.097783 -0.233913 -0.967328 -0.097783 -0.233913 -0.967328 -0.005048 -0.191499 -0.98148 -0.005048 -0.191499 -0.98148 -0.005048 -0.191499 -0.98148 -0.16949 -0.700669 0.693063 -0.16949 -0.700669 0.693063 -0.16949 -0.700669 0.693063 -0.052679 -0.772319 0.633047 -0.052679 -0.772319 0.633047 -0.052679 -0.772319 0.633047 0.097015 0.956626 0.274691 0.097015 0.956626 0.274691 0.097015 0.956626 0.274691 0.223839 0.912766 0.341693 0.223839 0.912766 0.341693 0.223839 0.912766 0.341693 0.242086 -0.380747 -0.892427 0.242086 -0.380747 -0.892427 0.242086 -0.380747 -0.892427 0.417981 -0.279151 -0.864504 0.417981 -0.279151 -0.864504 0.417981 -0.279151 -0.864504 -0.362227 -0.612687 0.702429 -0.362227 -0.612687 0.702429 -0.362227 -0.612687 0.702429 -0.100882 -0.703273 0.703725 -0.100882 -0.703273 0.703725 -0.100882 -0.703273 0.703725 -0.188699 0.98079 0.049431 -0.188699 0.98079 0.049431 -0.188699 0.98079 0.049431 0.004206 0.96661 0.256218 0.004206 0.96661 0.256218 0.004206 0.96661 0.256218 0.468926 -0.486843 -0.736948 0.468926 -0.486843 -0.736948 0.468926 -0.486843 -0.736948 0.662838 -0.351642 -0.661055 0.662838 -0.351642 -0.661055 0.662838 -0.351642 -0.661055 -0.537013 -0.528854 0.657214 -0.537013 -0.528854 0.657214 -0.537013 -0.528854 0.657214 -0.262522 -0.602071 0.754051 -0.262522 -0.602071 0.754051 -0.262522 -0.602071 0.754051 -0.224356 0.962026 -0.155472 -0.224355 0.962025 -0.155472 -0.224355 0.962025 -0.155472 -0.084405 0.99048 0.108742 -0.084405 0.99048 0.108742 -0.084405 0.99048 0.108742 0.609848 -0.546951 -0.573524 0.609848 -0.546951 -0.573524 0.609848 -0.546951 -0.573524 0.755646 -0.432983 -0.491452 0.755646 -0.432983 -0.491452 0.755646 -0.432983 -0.491452 -0.643155 -0.464796 0.608536 -0.643155 -0.464796 0.608536 -0.643155 -0.464796 0.608536 -0.455221 -0.51149 0.728801 -0.455221 -0.51149 0.728801 -0.455221 -0.51149 0.728801 -0.159338 0.955299 -0.24903 -0.159338 0.955299 -0.24903 -0.159338 0.955299 -0.24903 -0.092821 0.994963 -0.037854 -0.092821 0.994963 -0.037854 -0.092821 0.994963 -0.037854 0.697106 -0.566187 -0.439859 0.697106 -0.566187 -0.439859 0.697106 -0.566187 -0.439859 0.776293 -0.499361 -0.384719 0.776293 -0.499361 -0.384719 0.776292 -0.499361 -0.384719 -0.693998 -0.428433 0.578629 -0.693998 -0.428433 0.578629 -0.693998 -0.428433 0.578629 -0.600251 -0.451387 0.660264 -0.600251 -0.451387 0.660264 -0.600251 -0.451387 0.660264 -0.09802 0.958105 -0.269121 -0.09802 0.958105 -0.269121 -0.09802 0.958105 -0.269121 -0.075498 0.985839 -0.149737 -0.075498 0.985839 -0.149737 -0.075498 0.985839 -0.149737 0.75123 -0.560748 -0.34816 0.75123 -0.560748 -0.34816 0.75123 -0.560748 -0.34816 0.77993 -0.534767 -0.325168 0.77993 -0.534767 -0.325168 0.77993 -0.534767 -0.325168 -0.714274 -0.415937 0.562859 -0.714274 -0.415937 0.562858 -0.714274 -0.415937 0.562858 -0.682055 -0.423556 0.596156 -0.682055 -0.423555 0.596156 -0.682055 -0.423555 0.596156 -0.069437 0.961536 -0.265758 -0.069437 0.961536 -0.265758 -0.069437 0.961536 -0.265758 -0.064326 0.973192 -0.220816 -0.064326 0.973192 -0.220816 -0.064326 0.973192 -0.220816 0.783351 -0.547525 -0.29424 0.783351 -0.547525 -0.29424 0.783351 -0.547525 -0.29424 0.787365 -0.543621 -0.290745 0.787365 -0.543621 -0.290745 0.787365 -0.543621 -0.290745 -0.719921 -0.415646 0.555835 -0.719921 -0.415646 0.555835 -0.719921 -0.415646 0.555835 -0.715574 -0.416581 0.560727 -0.715574 -0.416581 0.560727 -0.715574 -0.416581 0.560727 -0.067918 0.960738 -0.269017 -0.067918 0.960738 -0.269017 -0.067918 0.960738 -0.269017 -0.067447 0.962564 -0.262529 -0.067447 0.962564 -0.262529 -0.067447 0.962564 -0.262529 0.796935 -0.541606 -0.267502 0.796935 -0.541606 -0.267502 0.796935 -0.541606 -0.267502 0.800905 -0.537468 -0.263968 0.800905 -0.537468 -0.263968 0.800905 -0.537468 -0.263968 -0.72134 -0.41321 0.555811 -0.72134 -0.41321 0.555811 -0.72134 -0.41321 0.555811 -0.717026 -0.413974 0.560803 -0.717026 -0.413974 0.560803 -0.717026 -0.413974 0.560803 -0.079913 0.951909 -0.295776 -0.079913 0.951909 -0.295776 -0.079913 0.951909 -0.295776 -0.079546 0.953972 -0.289153 -0.079546 0.953972 -0.289153 -0.079546 0.953972 -0.289153 0.790342 -0.557551 -0.253962 0.790341 -0.557551 -0.253962 0.790342 -0.557551 -0.253962 0.8174 -0.527648 -0.231182 0.8174 -0.527648 -0.231182 0.8174 -0.527648 -0.231182 -0.727097 -0.393653 0.562465 -0.727097 -0.393653 0.562465 -0.727097 -0.393653 0.562465 -0.697257 -0.397229 0.596692 -0.697257 -0.397229 0.596692 -0.697257 -0.397229 0.596692 -0.092854 0.928732 -0.358935 -0.092854 0.928733 -0.358935 -0.092854 0.928733 -0.358935 -0.090307 0.945126 -0.313976 -0.090307 0.945126 -0.313976 -0.090307 0.945126 -0.313976 0.760183 -0.606892 -0.231957 0.760183 -0.606892 -0.231957 0.760183 -0.606892 -0.231957 0.83308 -0.523012 -0.180102 0.83308 -0.523012 -0.180102 0.83308 -0.523012 -0.180102 -0.74283 -0.342113 0.575466 -0.742831 -0.342113 0.575466 -0.74283 -0.342113 0.575466 -0.663429 -0.344992 0.663959 -0.663429 -0.344992 0.663959 -0.663429 -0.344992 0.663959 -0.097833 0.877611 -0.469285 -0.097833 0.877611 -0.469285 -0.097833 0.877611 -0.469285 -0.089365 0.931325 -0.353054 -0.089365 0.931325 -0.353054 -0.089365 0.931325 -0.353054 0.710653 -0.683778 -0.165589 0.710653 -0.683778 -0.165589 0.710653 -0.683778 -0.165589 0.844212 -0.526668 -0.099628 0.844212 -0.526668 -0.099628 0.844212 -0.526668 -0.099628 -0.764907 -0.247742 0.594593 -0.764907 -0.247742 0.594593 -0.764907 -0.247742 0.594593 -0.622939 -0.234871 0.746178 -0.622939 -0.234871 0.746178 -0.622939 -0.234871 0.746178 -0.09364 0.773811 -0.626457 -0.09364 0.773811 -0.626457 -0.09364 0.773811 -0.626457 -0.074001 0.898609 -0.432465 -0.074001 0.898609 -0.432465 -0.074001 0.898609 -0.432465 0.676738 -0.736077 -0.014708 0.676737 -0.736077 -0.014708 0.676737 -0.736077 -0.014708 0.849978 -0.526521 0.017678 0.849978 -0.526521 0.017678 0.849978 -0.526521 0.017678 -0.775101 -0.112005 0.62183 -0.775101 -0.112005 0.62183 -0.775101 -0.112005 0.62183 -0.590468 -0.058488 0.804939 -0.590468 -0.058488 0.804939 -0.590468 -0.058488 0.804939 -0.09338 0.591462 -0.800907 -0.09338 0.591462 -0.800907 -0.09338 0.591462 -0.800907 -0.064756 0.806022 -0.588332 -0.064756 0.806022 -0.588332 -0.064756 0.806022 -0.588332</float_array>
          <technique_common>
            <accessor source="#Torus_Knot01-mesh-normals-array" count="1080" stride="3">
              <param name="X" type="float"/>
              <param name="Y" type="float"/>
              <param name="Z" type="float"/>
            </accessor>
          </technique_common>
        </source>
        <source id="Torus_Knot01-mesh-map-channel1">
          <float_array id="Torus_Knot01-mesh-map-channel1-array" count="732">0 0 0 0 0.333333 0 0 0.666667 0 0 1 0 0.016666 0 0 0.016666 0.333333 0 0.016666 0.666667 0 0.016666 1 0 0.033333 0 0 0.033333 0.333333 0 0.033333 0.666667 0 0.033333 1 0 0.05 0 0 0.05 0.333333 0 0.05 0.666667 0 0.05 1 0 0.066666 0 0 0.066666 0.333333 0 0.066666 0.666667 0 0.066666 1 0 0.083333 0 0 0.083333 0.333333 0 0.083333 0.666667 0 0.083333 1 0 0.1 0 0 0.1 0.333333 0 0.1 0.666667 0 0.1 1 0 0.116667 0 0 0.116667 0.333333 0 0.116667 0.666667 0 0.116667 1 0 0.133333 0 0 0.133333 0.333333 0 0.133333 0.666667 0 0.133333 1 0 0.15 0 0 0.15 0.333333 0 0.15 0.666667 0 0.15 1 0 0.166667 0 0 0.166667 0.333333 0 0.166667 0.666667 0 0.166667 1 0 0.183333 0 0 0.183333 0.333333 0 0.183333 0.666667 0 0.183333 1 0 0.2 0 0 0.2 0.333333 0 0.2 0.666667 0 0.2 1 0 0.216667 0 0 0.216667 0.333333 0 0.216667 0.666667 0 0.216667 1 0 0.233333 0 0 0.233333 0.333333 0 0.233333 0.666667 0 0.233333 1 0 0.25 0 0 0.25 0.333333 0 0.25 0.666667 0 0.25 1 0 0.266667 0 0 0.266667 0.333333 0 0.266667 0.666667 0 0.266667 1 0 0.283333 0 0 0.283333 0.333333 0 0.283333 0.666667 0 0.283333 1 0 0.3 0 0 0.3 0.333333 0 0.3 0.666667 0 0.3 1 0 0.316667 0 0 0.316667 0.333333 0 0.316667 0.666667 0 0.316667 1 0 0.333333 0 0 0.333333 0.333333 0 0.333333 0.666667 0 0.333333 1 0 0.35 0 0 0.35 0.333333 0 0.35 0.666667 0 0.35 1 0 0.366667 0 0 0.366667 0.333333 0 0.366667 0.666667 0 0.366667 1 0 0.383333 0 0 0.383333 0.333333 0 0.383333 0.666667 0 0.383333 1 0 0.4 0 0 0.4 0.333333 0 0.4 0.666667 0 0.4 1 0 0.416667 0 0 0.416667 0.333333 0 0.416667 0.666667 0 0.416667 1 0 0.433333 0 0 0.433333 0.333333 0 0.433333 0.666667 0 0.433333 1 0 0.45 0 0 0.45 0.333333 0 0.45 0.666667 0 0.45 1 0 0.466667 0 0 0.466667 0.333333 0 0.466667 0.666667 0 0.466667 1 0 0.483333 0 0 0.483333 0.333333 0 0.483333 0.666667 0 0.483333 1 0 0.5 0 0 0.5 0.333333 0 0.5 0.666667 0 0.5 1 0 0.516666 0 0 0.516666 0.333333 0 0.516666 0.666667 0 0.516666 1 0 0.533333 0 0 0.533333 0.333333 0 0.533333 0.666667 0 0.533333 1 0 0.55 0 0 0.55 0.333333 0 0.55 0.666667 0 0.55 1 0 0.566666 0 0 0.566666 0.333333 0 0.566666 0.666667 0 0.566666 1 0 0.583333 0 0 0.583333 0.333333 0 0.583333 0.666667 0 0.583333 1 0 0.6 0 0 0.6 0.333333 0 0.6 0.666667 0 0.6 1 0 0.616666 0 0 0.616666 0.333333 0 0.616666 0.666667 0 0.616666 1 0 0.633333 0 0 0.633333 0.333333 0 0.633333 0.666667 0 0.633333 1 0 0.65 0 0 0.65 0.333333 0 0.65 0.666667 0 0.65 1 0 0.666666 0 0 0.666666 0.333333 0 0.666666 0.666667 0 0.666666 1 0 0.683333 0 0 0.683333 0.333333 0 0.683333 0.666667 0 0.683333 1 0 0.7 0 0 0.7 0.333333 0 0.7 0.666667 0 0.7 1 0 0.716666 0 0 0.716666 0.333333 0 0.716666 0.666667 0 0.716666 1 0 0.733333 0 0 0.733333 0.333333 0 0.733333 0.666667 0 0.733333 1 0 0.75 0 0 0.75 0.333333 0 0.75 0.666667 0 0.75 1 0 0.766666 0 0 0.766666 0.333333 0 0.766666 0.666667 0 0.766666 1 0 0.783333 0 0 0.783333 0.333333 0 0.783333 0.666667 0 0.783333 1 0 0.799999 0 0 0.799999 0.333333 0 0.799999 0.666667 0 0.799999 1 0 0.816666 0 0 0.816666 0.333333 0 0.816666 0.666667 0 0.816666 1 0 0.833333 0 0 0.833333 0.333333 0 0.833333 0.666667 0 0.833333 1 0 0.849999 0 0 0.849999 0.333333 0 0.849999 0.666667 0 0.849999 1 0 0.866666 0 0 0.866666 0.333333 0 0.866666 0.666667 0 0.866666 1 0 0.883333 0 0 0.883333 0.333333 0 0.883333 0.666667 0 0.883333 1 0 0.899999 0 0 0.899999 0.333333 0 0.899999 0.666667 0 0.899999 1 0 0.916666 0 0 0.916666 0.333333 0 0.916666 0.666667 0 0.916666 1 0 0.933333 0 0 0.933333 0.333333 0 0.933333 0.666667 0 0.933333 1 0 0.949999 0 0 0.949999 0.333333 0 0.949999 0.666667 0 0.949999 1 0 0.966666 0 0 0.966666 0.333333 0 0.966666 0.666667 0 0.966666 1 0 0.983333 0 0 0.983333 0.333333 0 0.983333 0.666667 0 0.983333 1 0 0.999999 0 0 0.999999 0.333333 0 0.999999 0.666667 0 0.999999 1 0</float_array>
          <technique_common>
            <accessor source="#Torus_Knot01-mesh-map-channel1-array" count="244" stride="3">
              <param name="S" type="float"/>
              <param name="T" type="float"/>
              <param name="P" type="float"/>
            </accessor>
          </technique_common>
        </source>
        <vertices id="Torus_Knot01-mesh-vertices">
          <input semantic="POSITION" source="#Torus_Knot01-mesh-positions"/>
        </vertices>
        <triangles material="ColorMaterial" count="360">
          <input semantic="VERTEX" source="#Torus_Knot01-mesh-vertices" offset="0"/>
          <input semantic="NORMAL" source="#Torus_Knot01-mesh-normals" offset="1"/>
          <input semantic="TEXCOORD" source="#Torus_Knot01-mesh-map-channel1" offset="2" set="1"/>
          <p>0 0 0 3 1 4 4 2 5 0 3 0 4 4 5 1 5 1 1 6 1 4 7 5 5 8 6 1 9 1 5 10 6 2 11 2 2 12 2 5 13 6 3 14 7 2 15 2 3 16 7 0 17 3 3 18 4 6 19 8 7 20 9 3 21 4 7 22 9 4 23 5 4 24 5 7 25 9 8 26 10 4 27 5 8 28 10 5 29 6 5 30 6 8 31 10 6 32 11 5 33 6 6 34 11 3 35 7 6 36 8 9 37 12 10 38 13 6 39 8 10 40 13 7 41 9 7 42 9 10 43 13 11 44 14 7 45 9 11 46 14 8 47 10 8 48 10 11 49 14 9 50 15 8 51 10 9 52 15 6 53 11 9 54 12 12 55 16 13 56 17 9 57 12 13 58 17 10 59 13 10 60 13 13 61 17 14 62 18 10 63 13 14 64 18 11 65 14 11 66 14 14 67 18 12 68 19 11 69 14 12 70 19 9 71 15 12 72 16 15 73 20 16 74 21 12 75 16 16 76 21 13 77 17 13 78 17 16 79 21 17 80 22 13 81 17 17 82 22 14 83 18 14 84 18 17 85 22 15 86 23 14 87 18 15 88 23 12 89 19 15 90 20 18 91 24 19 92 25 15 93 20 19 94 25 16 95 21 16 96 21 19 97 25 20 98 26 16 99 21 20 100 26 17 101 22 17 102 22 20 103 26 18 104 27 17 105 22 18 106 27 15 107 23 18 108 24 21 109 28 22 110 29 18 111 24 22 112 29 19 113 25 19 114 25 22 115 29 23 116 30 19 117 25 23 118 30 20 119 26 20 120 26 23 121 30 21 122 31 20 123 26 21 124 31 18 125 27 21 126 28 24 127 32 25 128 33 21 129 28 25 130 33 22 131 29 22 132 29 25 133 33 26 134 34 22 135 29 26 136 34 23 137 30 23 138 30 26 139 34 24 140 35 23 141 30 24 142 35 21 143 31 24 144 32 27 145 36 28 146 37 24 147 32 28 148 37 25 149 33 25 150 33 28 151 37 29 152 38 25 153 33 29 154 38 26 155 34 26 156 34 29 157 38 27 158 39 26 159 34 27 160 39 24 161 35 27 162 36 30 163 40 31 164 41 27 165 36 31 166 41 28 167 37 28 168 37 31 169 41 32 170 42 28 171 37 32 172 42 29 173 38 29 174 38 32 175 42 30 176 43 29 177 38 30 178 43 27 179 39 30 180 40 33 181 44 34 182 45 30 183 40 34 184 45 31 185 41 31 186 41 34 187 45 35 188 46 31 189 41 35 190 46 32 191 42 32 192 42 35 193 46 33 194 47 32 195 42 33 196 47 30 197 43 33 198 44 36 199 48 37 200 49 33 201 44 37 202 49 34 203 45 34 204 45 37 205 49 38 206 50 34 207 45 38 208 50 35 209 46 35 210 46 38 211 50 36 212 51 35 213 46 36 214 51 33 215 47 36 216 48 39 217 52 40 218 53 36 219 48 40 220 53 37 221 49 37 222 49 40 223 53 41 224 54 37 225 49 41 226 54 38 227 50 38 228 50 41 229 54 39 230 55 38 231 50 39 232 55 36 233 51 39 234 52 42 235 56 43 236 57 39 237 52 43 238 57 40 239 53 40 240 53 43 241 57 44 242 58 40 243 53 44 244 58 41 245 54 41 246 54 44 247 58 42 248 59 41 249 54 42 250 59 39 251 55 42 252 56 45 253 60 46 254 61 42 255 56 46 256 61 43 257 57 43 258 57 46 259 61 47 260 62 43 261 57 47 262 62 44 263 58 44 264 58 47 265 62 45 266 63 44 267 58 45 268 63 42 269 59 45 270 60 48 271 64 49 272 65 45 273 60 49 274 65 46 275 61 46 276 61 49 277 65 50 278 66 46 279 61 50 280 66 47 281 62 47 282 62 50 283 66 48 284 67 47 285 62 48 286 67 45 287 63 48 288 64 51 289 68 52 290 69 48 291 64 52 292 69 49 293 65 49 294 65 52 295 69 53 296 70 49 297 65 53 298 70 50 299 66 50 300 66 53 301 70 51 302 71 50 303 66 51 304 71 48 305 67 51 306 68 54 307 72 55 308 73 51 309 68 55 310 73 52 311 69 52 312 69 55 313 73 56 314 74 52 315 69 56 316 74 53 317 70 53 318 70 56 319 74 54 320 75 53 321 70 54 322 75 51 323 71 54 324 72 57 325 76 58 326 77 54 327 72 58 328 77 55 329 73 55 330 73 58 331 77 59 332 78 55 333 73 59 334 78 56 335 74 56 336 74 59 337 78 57 338 79 56 339 74 57 340 79 54 341 75 57 342 76 60 343 80 61 344 81 57 345 76 61 346 81 58 347 77 58 348 77 61 349 81 62 350 82 58 351 77 62 352 82 59 353 78 59 354 78 62 355 82 60 356 83 59 357 78 60 358 83 57 359 79 60 360 80 63 361 84 64 362 85 60 363 80 64 364 85 61 365 81 61 366 81 64 367 85 65 368 86 61 369 81 65 370 86 62 371 82 62 372 82 65 373 86 63 374 87 62 375 82 63 376 87 60 377 83 63 378 84 66 379 88 67 380 89 63 381 84 67 382 89 64 383 85 64 384 85 67 385 89 68 386 90 64 387 85 68 388 90 65 389 86 65 390 86 68 391 90 66 392 91 65 393 86 66 394 91 63 395 87 66 396 88 69 397 92 70 398 93 66 399 88 70 400 93 67 401 89 67 402 89 70 403 93 71 404 94 67 405 89 71 406 94 68 407 90 68 408 90 71 409 94 69 410 95 68 411 90 69 412 95 66 413 91 69 414 92 72 415 96 73 416 97 69 417 92 73 418 97 70 419 93 70 420 93 73 421 97 74 422 98 70 423 93 74 424 98 71 425 94 71 426 94 74 427 98 72 428 99 71 429 94 72 430 99 69 431 95 72 432 96 75 433 100 76 434 101 72 435 96 76 436 101 73 437 97 73 438 97 76 439 101 77 440 102 73 441 97 77 442 102 74 443 98 74 444 98 77 445 102 75 446 103 74 447 98 75 448 103 72 449 99 75 450 100 78 451 104 79 452 105 75 453 100 79 454 105 76 455 101 76 456 101 79 457 105 80 458 106 76 459 101 80 460 106 77 461 102 77 462 102 80 463 106 78 464 107 77 465 102 78 466 107 75 467 103 78 468 104 81 469 108 82 470 109 78 471 104 82 472 109 79 473 105 79 474 105 82 475 109 83 476 110 79 477 105 83 478 110 80 479 106 80 480 106 83 481 110 81 482 111 80 483 106 81 484 111 78 485 107 81 486 108 84 487 112 85 488 113 81 489 108 85 490 113 82 491 109 82 492 109 85 493 113 86 494 114 82 495 109 86 496 114 83 497 110 83 498 110 86 499 114 84 500 115 83 501 110 84 502 115 81 503 111 84 504 112 87 505 116 88 506 117 84 507 112 88 508 117 85 509 113 85 510 113 88 511 117 89 512 118 85 513 113 89 514 118 86 515 114 86 516 114 89 517 118 87 518 119 86 519 114 87 520 119 84 521 115 87 522 116 90 523 120 91 524 121 87 525 116 91 526 121 88 527 117 88 528 117 91 529 121 92 530 122 88 531 117 92 532 122 89 533 118 89 534 118 92 535 122 90 536 123 89 537 118 90 538 123 87 539 119 90 540 120 93 541 124 94 542 125 90 543 120 94 544 125 91 545 121 91 546 121 94 547 125 95 548 126 91 549 121 95 550 126 92 551 122 92 552 122 95 553 126 93 554 127 92 555 122 93 556 127 90 557 123 93 558 124 96 559 128 97 560 129 93 561 124 97 562 129 94 563 125 94 564 125 97 565 129 98 566 130 94 567 125 98 568 130 95 569 126 95 570 126 98 571 130 96 572 131 95 573 126 96 574 131 93 575 127 96 576 128 99 577 132 100 578 133 96 579 128 100 580 133 97 581 129 97 582 129 100 583 133 101 584 134 97 585 129 101 586 134 98 587 130 98 588 130 101 589 134 99 590 135 98 591 130 99 592 135 96 593 131 99 594 132 102 595 136 103 596 137 99 597 132 103 598 137 100 599 133 100 600 133 103 601 137 104 602 138 100 603 133 104 604 138 101 605 134 101 606 134 104 607 138 102 608 139 101 609 134 102 610 139 99 611 135 102 612 136 105 613 140 106 614 141 102 615 136 106 616 141 103 617 137 103 618 137 106 619 141 107 620 142 103 621 137 107 622 142 104 623 138 104 624 138 107 625 142 105 626 143 104 627 138 105 628 143 102 629 139 105 630 140 108 631 144 109 632 145 105 633 140 109 634 145 106 635 141 106 636 141 109 637 145 110 638 146 106 639 141 110 640 146 107 641 142 107 642 142 110 643 146 108 644 147 107 645 142 108 646 147 105 647 143 108 648 144 111 649 148 112 650 149 108 651 144 112 652 149 109 653 145 109 654 145 112 655 149 113 656 150 109 657 145 113 658 150 110 659 146 110 660 146 113 661 150 111 662 151 110 663 146 111 664 151 108 665 147 111 666 148 114 667 152 115 668 153 111 669 148 115 670 153 112 671 149 112 672 149 115 673 153 116 674 154 112 675 149 116 676 154 113 677 150 113 678 150 116 679 154 114 680 155 113 681 150 114 682 155 111 683 151 114 684 152 117 685 156 118 686 157 114 687 152 118 688 157 115 689 153 115 690 153 118 691 157 119 692 158 115 693 153 119 694 158 116 695 154 116 696 154 119 697 158 117 698 159 116 699 154 117 700 159 114 701 155 117 702 156 120 703 160 121 704 161 117 705 156 121 706 161 118 707 157 118 708 157 121 709 161 122 710 162 118 711 157 122 712 162 119 713 158 119 714 158 122 715 162 120 716 163 119 717 158 120 718 163 117 719 159 120 720 160 123 721 164 124 722 165 120 723 160 124 724 165 121 725 161 121 726 161 124 727 165 125 728 166 121 729 161 125 730 166 122 731 162 122 732 162 125 733 166 123 734 167 122 735 162 123 736 167 120 737 163 123 738 164 126 739 168 127 740 169 123 741 164 127 742 169 124 743 165 124 744 165 127 745 169 128 746 170 124 747 165 128 748 170 125 749 166 125 750 166 128 751 170 126 752 171 125 753 166 126 754 171 123 755 167 126 756 168 129 757 172 130 758 173 126 759 168 130 760 173 127 761 169 127 762 169 130 763 173 131 764 174 127 765 169 131 766 174 128 767 170 128 768 170 131 769 174 129 770 175 128 771 170 129 772 175 126 773 171 129 774 172 132 775 176 133 776 177 129 777 172 133 778 177 130 779 173 130 780 173 133 781 177 134 782 178 130 783 173 134 784 178 131 785 174 131 786 174 134 787 178 132 788 179 131 789 174 132 790 179 129 791 175 132 792 176 135 793 180 136 794 181 132 795 176 136 796 181 133 797 177 133 798 177 136 799 181 137 800 182 133 801 177 137 802 182 134 803 178 134 804 178 137 805 182 135 806 183 134 807 178 135 808 183 132 809 179 135 810 180 138 811 184 139 812 185 135 813 180 139 814 185 136 815 181 136 816 181 139 817 185 140 818 186 136 819 181 140 820 186 137 821 182 137 822 182 140 823 186 138 824 187 137 825 182 138 826 187 135 827 183 138 828 184 141 829 188 142 830 189 138 831 184 142 832 189 139 833 185 139 834 185 142 835 189 143 836 190 139 837 185 143 838 190 140 839 186 140 840 186 143 841 190 141 842 191 140 843 186 141 844 191 138 845 187 141 846 188 144 847 192 145 848 193 141 849 188 145 850 193 142 851 189 142 852 189 145 853 193 146 854 194 142 855 189 146 856 194 143 857 190 143 858 190 146 859 194 144 860 195 143 861 190 144 862 195 141 863 191 144 864 192 147 865 196 148 866 197 144 867 192 148 868 197 145 869 193 145 870 193 148 871 197 149 872 198 145 873 193 149 874 198 146 875 194 146 876 194 149 877 198 147 878 199 146 879 194 147 880 199 144 881 195 147 882 196 150 883 200 151 884 201 147 885 196 151 886 201 148 887 197 148 888 197 151 889 201 152 890 202 148 891 197 152 892 202 149 893 198 149 894 198 152 895 202 150 896 203 149 897 198 150 898 203 147 899 199 150 900 200 153 901 204 154 902 205 150 903 200 154 904 205 151 905 201 151 906 201 154 907 205 155 908 206 151 909 201 155 910 206 152 911 202 152 912 202 155 913 206 153 914 207 152 915 202 153 916 207 150 917 203 153 918 204 156 919 208 157 920 209 153 921 204 157 922 209 154 923 205 154 924 205 157 925 209 158 926 210 154 927 205 158 928 210 155 929 206 155 930 206 158 931 210 156 932 211 155 933 206 156 934 211 153 935 207 156 936 208 159 937 212 160 938 213 156 939 208 160 940 213 157 941 209 157 942 209 160 943 213 161 944 214 157 945 209 161 946 214 158 947 210 158 948 210 161 949 214 159 950 215 158 951 210 159 952 215 156 953 211 159 954 212 162 955 216 163 956 217 159 957 212 163 958 217 160 959 213 160 960 213 163 961 217 164 962 218 160 963 213 164 964 218 161 965 214 161 966 214 164 967 218 162 968 219 161 969 214 162 970 219 159 971 215 162 972 216 165 973 220 166 974 221 162 975 216 166 976 221 163 977 217 163 978 217 166 979 221 167 980 222 163 981 217 167 982 222 164 983 218 164 984 218 167 985 222 165 986 223 164 987 218 165 988 223 162 989 219 165 990 220 168 991 224 169 992 225 165 993 220 169 994 225 166 995 221 166 996 221 169 997 225 170 998 226 166 999 221 170 1000 226 167 1001 222 167 1002 222 170 1003 226 168 1004 227 167 1005 222 168 1006 227 165 1007 223 168 1008 224 171 1009 228 172 1010 229 168 1011 224 172 1012 229 169 1013 225 169 1014 225 172 1015 229 173 1016 230 169 1017 225 173 1018 230 170 1019 226 170 1020 226 173 1021 230 171 1022 231 170 1023 226 171 1024 231 168 1025 227 171 1026 228 174 1027 232 175 1028 233 171 1029 228 175 1030 233 172 1031 229 172 1032 229 175 1033 233 176 1034 234 172 1035 229 176 1036 234 173 1037 230 173 1038 230 176 1039 234 174 1040 235 173 1041 230 174 1042 235 171 1043 231 174 1044 232 177 1045 236 178 1046 237 174 1047 232 178 1048 237 175 1049 233 175 1050 233 178 1051 237 179 1052 238 175 1053 233 179 1054 238 176 1055 234 176 1056 234 179 1057 238 177 1058 239 176 1059 234 177 1060 239 174 1061 235 177 1062 236 0 1063 240 1 1064 241 177 1065 236 1 1066 241 178 1067 237 178 1068 237 1 1069 241 2 1070 242 178 1071 237 2 1072 242 179 1073 238 179 1074 238 2 1075 242 0 1076 243 179 1077 238 0 1078 243 177 1079 239</p>
        </triangles>
      </mesh>
    </geometry>
  </library_geometries>
  <library_visual_scenes>
    <visual_scene id="unnamed_scene" name="unnamed_scene">
      <node id="Torus_Knot01-node" name="Torus_Knot01" type="NODE">
        <matrix>1 0 0 0 0 1 0 0 0 0 1 0 0 0 0 1</matrix>
        <instance_geometry url="#Torus_Knot01-mesh">
          <bind_material>
            <technique_common>
              <instance_material symbol="ColorMaterial" target="#ColorMaterial_57E18F00"/>
            </technique_common>
          </bind_material>
        </instance_geometry>
      </node>
      <extra>
        <technique profile="FCOLLADA">
          <start_time>0</start_time>
          <end_time>3.33333</end_time>
        </technique>
      </extra>
      <extra>
        <technique profile="MAX3D">
          <frame_rate>30</frame_rate>
        </technique>
      </extra>
    </visual_scene>
  </library_visual_scenes>
  <scene>
    <instance_visual_scene url="#unnamed_scene"/>
  </scene>
</COLLADA>
